<?xml version="1.0" encoding="UTF-8"?>
<svg id="b" data-name="Layer 2" xmlns="http://www.w3.org/2000/svg" width="366" height="66.1" viewBox="0 0 366 66.1">
  <defs>
    <style>
      .d {
        fill: #f6acc5;
      }

      .e {
        fill: #fff;
      }

      .f {
        fill: #e97a92;
      }

      .g {
        fill: #dbe38c;
      }

      .h {
        fill: #dde269;
      }
    </style>
  </defs>
  <g id="c" data-name="Layer 1">
    <rect class="d" x="0" y="1.28" width="362.76" height="60.9"/>
    <rect class="f" x="5.3" y="3.92" width="360.11" height="58.25" transform="translate(-.68 4.05) rotate(-1.25)"/>
    <g>
      <polygon class="e" points="347.56 24.8 299.33 26.22 286.56 26.22 275.72 28.54 251.09 23.38 230.81 28.54 217.05 27.64 208.53 23.38 209.82 18.52 189.34 18.52 190.41 42.27 210.39 41.83 228.09 42.27 245.66 41.96 269.22 40.55 292.85 40.03 312.11 38.88 326.28 40.4 338.37 38.31 347.8 38.1 347.56 24.8"/>
      <path class="e" d="M84.41,27.64c-18.67,0-35.38,1.13-46.7,2.92-.97-2.98-3.04-5.05-5.43-5.05-3.06,0-5.59,3.36-5.97,7.71-2.33.89-3.6,1.84-3.6,2.84,0,1.12,1.62,2.19,4.53,3.17,1.08,2.42,2.93,4.01,5.04,4.01,1.43,0,2.74-.73,3.77-1.95,11.3,1.95,28.76,3.19,48.36,3.19,34.08,0,61.71-3.77,61.71-8.42s-27.63-8.42-61.71-8.42Z"/>
    </g>
    <ellipse class="e" cx="114.2" cy="36.15" rx="2.13" ry="1.42"/>
    <g>
      <g>
        <path class="h" d="M30.46,45.47c-1.52.03-2.9-.28-4.15-.94-1.25-.66-2.25-1.64-3.01-2.94-.76-1.3-1.16-2.9-1.2-4.8l-.12-5.32c-.06-2.85.69-5.05,2.26-6.62,1.57-1.56,3.73-2.38,6.47-2.44,2.72-.06,4.84.62,6.36,2.03,1.52,1.41,2.3,3.35,2.36,5.82v.13s-4.11.09-4.11.09v-.25c-.02-.78-.2-1.48-.54-2.11-.34-.63-.84-1.12-1.5-1.47-.66-.35-1.49-.52-2.48-.5-1.48.03-2.63.51-3.45,1.44-.82.93-1.22,2.17-1.19,3.73l.12,5.44c.03,1.54.48,2.77,1.35,3.69.86.92,2.06,1.36,3.57,1.33,1.52-.03,2.62-.46,3.3-1.28.68-.82,1-1.84.98-3.06v-.32s-5.26.11-5.26.11l-.08-3.54,9.36-.2.25,11.32-3.86.08-.05-2.12h-.57c-.14.38-.37.76-.69,1.17-.32.41-.8.76-1.45,1.04-.65.29-1.54.45-2.68.47Z"/>
        <path class="e" d="M30.25,46.98c-1.67,0-3.23-.37-4.63-1.11-1.5-.79-2.71-1.97-3.61-3.51-.88-1.52-1.35-3.38-1.4-5.52l-.12-5.32c-.07-3.26.84-5.85,2.7-7.71,1.84-1.84,4.37-2.81,7.49-2.87,3.12-.07,5.61.75,7.41,2.43,1.82,1.69,2.77,4.01,2.84,6.89v.13c.02.83-.64,1.51-1.46,1.53l-4.11.09c-.4.01-.78-.14-1.07-.42-.29-.27-.45-.65-.46-1.05v-.25c-.02-.54-.13-1.01-.36-1.42-.2-.37-.49-.65-.9-.87-.43-.23-1.02-.34-1.74-.32-1.05.02-1.82.33-2.36.93-.57.64-.83,1.52-.81,2.7l.12,5.44c.03,1.17.33,2.05.94,2.69.56.6,1.36.88,2.45.86,1.06-.02,1.79-.27,2.17-.73.22-.26.37-.55.48-.88l-3.57.08s-.02,0-.03,0c-.81,0-1.48-.65-1.5-1.47l-.08-3.54c-.02-.83.64-1.51,1.47-1.53l9.36-.2c.84-.06,1.51.64,1.53,1.47l.25,11.32c0,.4-.14.78-.42,1.07s-.65.45-1.05.46l-3.86.08c-.39,0-.78-.14-1.07-.42-.05-.05-.09-.1-.14-.15-.29.2-.62.37-.97.53-.84.37-1.9.57-3.25.6h0c-.08,0-.17,0-.25,0ZM31.05,23.92c-.1,0-.2,0-.3,0-2.36.05-4.14.71-5.44,2-1.28,1.27-1.87,3.08-1.82,5.52l.12,5.32c.04,1.63.37,3.01.99,4.08.62,1.06,1.41,1.84,2.41,2.37,1.03.54,2.15.8,3.42.76h0c1.16-.02,1.78-.2,2.1-.34.52-.23.77-.45.88-.6.03-.04.06-.08.09-.12-.66.23-1.42.35-2.26.37-1.97.02-3.54-.56-4.7-1.8-1.12-1.19-1.71-2.77-1.75-4.68l-.12-5.44c-.04-1.94.48-3.55,1.56-4.76,1.11-1.25,2.64-1.9,4.54-1.94,1.24-.03,2.33.2,3.22.68.92.5,1.63,1.19,2.11,2.08.26.48.46,1,.57,1.55l1.13-.02c-.24-1.4-.82-2.52-1.75-3.38-1.18-1.1-2.82-1.63-5-1.63ZM35.85,41.29c.81,0,1.48.65,1.5,1.47v.62s.87-.02.87-.02l-.18-8.33-6.36.14v.54s3.76-.08,3.76-.08c.4-.02.78.14,1.07.42.29.28.45.65.46,1.05v.32c.04,1.5-.36,2.81-1.18,3.87h.02s.02,0,.03,0Z"/>
      </g>
      <g>
        <path class="h" d="M43.87,44.74l-.34-15.69,3.92-.09.04,1.77h.57c.22-.65.59-1.12,1.12-1.43.53-.31,1.16-.47,1.87-.48l1.9-.04.08,3.54-1.96.04c-1.01.02-1.84.31-2.48.86-.64.55-.95,1.39-.93,2.5l.19,8.92-3.99.09Z"/>
        <path class="e" d="M43.86,46.24c-.81,0-1.48-.65-1.5-1.47l-.34-15.69c-.02-.83.64-1.51,1.47-1.53l3.92-.09c.39-.02.78.14,1.07.42.02.02.04.04.06.06.72-.39,1.56-.6,2.47-.62l1.9-.04c.39-.02.78.14,1.07.42.29.27.45.65.46,1.05l.08,3.54c.02.83-.64,1.51-1.47,1.53l-1.96.04c-.66.01-1.16.18-1.53.5-.11.09-.43.37-.41,1.34l.19,8.92c0,.4-.14.78-.42,1.07-.27.29-.65.45-1.05.46l-3.99.09h-.03ZM45.06,30.51l.28,12.69.99-.02-.16-7.42c-.04-1.82.65-2.91,1.29-3.53-.8-.02-1.44-.66-1.46-1.47v-.27s-.93.02-.93.02ZM51.48,30.31h-.4c-.47.02-.84.11-1.16.29-.13.07-.28.19-.4.47.47-.13.97-.2,1.51-.21h.46s-.01-.55-.01-.55Z"/>
      </g>
      <g>
        <path class="h" d="M60.9,44.81c-1.12.02-2.12-.15-3.02-.52-.89-.37-1.61-.92-2.14-1.66-.53-.74-.81-1.64-.83-2.72s.21-1.98.72-2.72,1.21-1.3,2.12-1.69c.91-.39,1.95-.6,3.14-.62l4.3-.09-.02-.89c-.02-.74-.26-1.34-.74-1.8-.47-.46-1.22-.69-2.23-.66-.99.02-1.72.26-2.2.73-.48.46-.78,1.06-.91,1.78l-3.7-1.15c.24-.81.62-1.55,1.17-2.23.54-.68,1.28-1.23,2.21-1.66.93-.43,2.07-.66,3.42-.69,2.07-.04,3.71.44,4.94,1.44,1.22,1.01,1.86,2.49,1.9,4.45l.13,5.85c.01.63.32.94.91.93l1.27-.03.07,3.29-2.66.06c-.78.02-1.43-.16-1.94-.53-.51-.37-.78-.87-.79-1.5v-.03s-.6.01-.6.01c-.08.25-.26.59-.55,1.01-.29.42-.74.79-1.37,1.12-.63.33-1.49.51-2.58.53ZM61.52,41.57c1.12-.02,2.02-.36,2.72-.99.69-.64,1.03-1.47,1.01-2.51v-.32s-4.02.09-4.02.09c-.74.02-1.31.19-1.73.51-.42.33-.62.77-.6,1.34.01.57.24,1.03.69,1.38.45.35,1.1.51,1.94.5Z"/>
        <path class="e" d="M60.69,46.31c-1.23,0-2.37-.21-3.39-.64-1.15-.48-2.09-1.21-2.78-2.17-.71-.98-1.09-2.18-1.12-3.56-.03-1.39.3-2.6.97-3.6.47-.7,1.09-1.28,1.83-1.74l-1.27-.4c-.78-.24-1.22-1.07-.99-1.85.29-.99.77-1.92,1.44-2.75.69-.85,1.61-1.55,2.75-2.08,1.11-.52,2.46-.8,4.02-.83,2.43-.07,4.42.55,5.92,1.78,1.57,1.29,2.4,3.17,2.45,5.58l.12,5.3h.65c.79-.03,1.51.62,1.53,1.45l.07,3.29c0,.4-.14.78-.42,1.07-.28.29-.65.45-1.05.46l-2.66.06c-1.12.02-2.07-.25-2.85-.81-.12-.09-.24-.18-.34-.28-.38.37-.84.7-1.4,1-.84.44-1.91.67-3.25.7h0c-.08,0-.16,0-.23,0ZM60.56,36.38c-.84.05-1.59.21-2.24.49-.64.28-1.12.65-1.46,1.15-.32.48-.47,1.08-.46,1.85.02.77.2,1.38.55,1.87.37.51.86.89,1.5,1.16.7.29,1.5.43,2.41.41h0c1.07-.02,1.63-.21,1.92-.36.02-.01.04-.02.06-.04-.41.09-.84.14-1.29.15-1.18.02-2.17-.25-2.89-.81-.81-.63-1.25-1.5-1.27-2.53-.02-1.03.39-1.94,1.18-2.55.54-.42,1.21-.69,2-.79ZM66.1,40.64c.35.02.68.17.94.42.29.28.45.66.46,1.06,0,.18.04.24.17.34.25.18.58.27,1.04.25l1.16-.02v-.3c-.74-.04-1.22-.35-1.49-.62-.32-.3-.7-.85-.72-1.78l-.13-5.85c-.03-1.52-.48-2.6-1.35-3.33-.95-.78-2.23-1.13-3.95-1.1-1.14.02-2.08.21-2.82.55-.72.33-1.28.75-1.67,1.24-.1.12-.19.24-.27.36l.72.22c.21-.36.47-.7.77-.99.76-.74,1.84-1.13,3.22-1.16,1.44-.04,2.54.34,3.31,1.09.75.74,1.16,1.72,1.19,2.84l.02.89c0,.4-.14.78-.42,1.07-.23.24-.53.4-.86.45.33.04.63.18.87.41.29.28.45.65.46,1.05v.32c.03.97-.19,1.85-.64,2.6ZM63.39,39.29l-2.14.05c-.39,0-.69.08-.84.19-.02.02-.03.06-.03.13,0,.12.02.15.11.22.06.05.32.2.99.18h0c.75-.02,1.31-.21,1.73-.6.06-.06.12-.12.17-.18ZM62.32,32.92s-.07,0-.1,0c-.57.01-1,.12-1.19.3-.05.05-.09.09-.13.14l2.59-.06c-.04-.06-.08-.11-.13-.15-.06-.06-.3-.24-1.04-.24Z"/>
      </g>
      <g>
        <path class="h" d="M74.44,50.4l-.48-22.02,3.92-.09.04,1.9h.57c.35-.63.89-1.19,1.64-1.68.75-.49,1.83-.75,3.24-.78,1.27-.03,2.44.26,3.53.86,1.09.6,1.97,1.49,2.65,2.68.68,1.19,1.04,2.64,1.08,4.34v.51c.05,1.71-.25,3.17-.87,4.39-.63,1.22-1.47,2.15-2.53,2.79-1.06.65-2.23.98-3.49,1.01-.95.02-1.75-.07-2.4-.28-.65-.21-1.17-.48-1.57-.82-.4-.34-.72-.69-.96-1.04h-.57s.18,8.14.18,8.14l-3.99.09ZM82.46,40.86c1.24-.03,2.26-.45,3.06-1.25.79-.81,1.18-1.97,1.14-3.49v-.32c-.04-1.52-.48-2.66-1.32-3.44-.84-.77-1.87-1.15-3.09-1.12-1.22.03-2.24.44-3.04,1.25-.81.81-1.19,1.97-1.16,3.49v.32c.04,1.52.48,2.66,1.32,3.44.84.77,1.87,1.15,3.09,1.12Z"/>
        <path class="e" d="M74.44,51.9c-.39,0-.76-.15-1.04-.42-.29-.28-.45-.65-.46-1.05l-.48-22.02c-.02-.83.64-1.51,1.47-1.53l3.92-.09c.4-.03.78.14,1.07.42.06.06.12.13.17.2.07-.05.14-.1.22-.15,1-.65,2.32-.99,4.03-1.03,1.51-.04,2.97.32,4.29,1.04,1.33.73,2.42,1.82,3.23,3.25.8,1.4,1.23,3.11,1.27,5.06v.51c.05,1.95-.3,3.67-1.04,5.11-.75,1.46-1.79,2.6-3.09,3.39-1.28.78-2.71,1.19-4.23,1.23-1.12.02-2.07-.09-2.89-.35-.39-.12-.75-.27-1.08-.44l.11,5.26c.02.83-.64,1.51-1.47,1.53l-3.99.09h-.03ZM75.49,29.85l.42,19.02.99-.02-.14-6.63c-.02-.82.62-1.5,1.44-1.53-1.04-1.05-1.59-2.51-1.63-4.35v-.31c-.05-1.79.41-3.24,1.35-4.32-.8-.01-1.46-.66-1.48-1.47v-.4s-.93.02-.93.02ZM80.93,42.21c.23.15.52.28.87.4.49.16,1.13.23,1.91.21,1.01-.02,1.9-.28,2.74-.79.83-.5,1.48-1.22,1.98-2.2.51-.99.75-2.22.72-3.67v-.51c-.04-1.45-.34-2.67-.89-3.63-.54-.95-1.22-1.64-2.07-2.11-.86-.48-1.77-.69-2.78-.67-1.4.03-2.1.31-2.45.54-.09.06-.17.12-.25.18.48-.13.98-.2,1.52-.21,1.6-.05,3.01.47,4.14,1.52,1.15,1.05,1.75,2.57,1.79,4.51v.31c.05,1.93-.48,3.47-1.56,4.58-1.07,1.09-2.45,1.67-4.09,1.7h0c-.55.01-1.07-.04-1.56-.15ZM82.37,32.74s-.06,0-.09,0c-.84.02-1.48.28-2.01.81-.51.51-.75,1.3-.72,2.4v.31c.03,1.1.3,1.88.83,2.37.56.51,1.22.75,2.04.72h0c.86-.02,1.5-.27,2.02-.81.5-.51.74-1.3.71-2.41v-.31c-.03-1.11-.3-1.88-.83-2.37-.54-.49-1.16-.73-1.95-.73Z"/>
      </g>
      <g>
        <path class="h" d="M94.48,43.63l-.48-22.15,3.99-.09.18,8.38h.57c.16-.35.42-.7.77-1.04.35-.34.82-.63,1.42-.87.6-.23,1.36-.36,2.29-.38,1.22-.03,2.3.23,3.23.77.93.54,1.66,1.29,2.19,2.26.53.97.81,2.11.83,3.42l.2,9.36-3.99.09-.2-9.05c-.03-1.18-.34-2.06-.93-2.64-.59-.58-1.43-.85-2.5-.83-1.22.03-2.16.45-2.82,1.28-.66.83-.97,1.97-.94,3.42l.17,7.97-3.99.09Z"/>
        <path class="e" d="M94.48,45.13c-.81,0-1.48-.65-1.5-1.47l-.48-22.15c0-.4.14-.78.42-1.07.27-.29.65-.45,1.05-.46l3.99-.09c.84-.05,1.51.64,1.53,1.47l.12,5.47c.24-.13.5-.25.77-.36.77-.3,1.69-.46,2.8-.49,1.5-.03,2.85.29,4.01.97,1.17.67,2.09,1.63,2.75,2.84.64,1.18.98,2.56,1.02,4.1l.2,9.37c.02.83-.64,1.51-1.47,1.53l-3.99.09c-.4,0-.78-.14-1.07-.42-.29-.28-.45-.65-.46-1.05l-.2-9.05c-.01-.53-.1-1.23-.48-1.6-.11-.1-.45-.42-1.42-.41-1.01.02-1.44.42-1.68.71-.43.54-.64,1.37-.61,2.46l.17,7.97c0,.4-.14.78-.42,1.07-.28.29-.65.45-1.05.46l-3.99.09h-.03ZM95.53,22.95l.42,19.15.99-.02-.14-6.47c-.04-1.78.37-3.23,1.22-4.33-.33-.03-.64-.18-.88-.41-.29-.28-.45-.65-.46-1.05l-.15-6.88-.99.02ZM102.18,29.37c1.41,0,2.56.42,3.42,1.26.88.86,1.35,2.1,1.38,3.68l.16,7.55.99-.02-.17-7.86c-.02-1.06-.24-1.98-.65-2.73-.4-.73-.93-1.28-1.62-1.68-.69-.4-1.49-.58-2.45-.57-.74.02-1.34.11-1.77.28-.16.06-.3.13-.43.2.31-.06.64-.09.98-.1.05,0,.11,0,.16,0Z"/>
      </g>
      <g>
        <path class="h" d="M115.58,25.64c-.72.02-1.33-.2-1.83-.66-.51-.45-.77-1.06-.78-1.82s.22-1.38.7-1.85c.48-.47,1.09-.72,1.8-.74.74-.02,1.35.2,1.85.66.5.45.75,1.06.77,1.82s-.21,1.38-.69,1.85c-.48.48-1.08.72-1.82.74ZM113.97,43.21l-.34-15.69,3.99-.09.34,15.69-3.99.09Z"/>
        <path class="e" d="M113.97,44.71c-.81,0-1.48-.65-1.5-1.47l-.34-15.69c-.01-.57.29-1.07.75-1.33-.05-.04-.09-.08-.14-.12-.81-.73-1.25-1.73-1.28-2.9-.03-1.17.37-2.19,1.15-2.96.75-.74,1.73-1.14,2.82-1.16,1.1-.03,2.12.34,2.9,1.05.8.73,1.23,1.73,1.25,2.89.03,1.16-.36,2.18-1.13,2.94-.05.05-.1.09-.15.14.12.06.24.15.34.24.29.27.45.65.46,1.05l.34,15.69c0,.4-.14.78-.42,1.07s-.65.45-1.05.46l-3.99.09h-.03ZM115.16,28.98l.28,12.69.99-.02-.28-12.69-.99.02ZM115.58,25.64h0,0ZM115.54,22.07s-.03,0-.04,0c-.33,0-.58.1-.79.31-.13.13-.26.32-.25.75,0,.43.15.61.29.73.22.2.47.27.8.27h0c.45,0,.66-.16.79-.3.13-.13.26-.32.25-.76,0-.44-.15-.62-.28-.75-.13-.12-.34-.26-.76-.26Z"/>
      </g>
      <g>
        <path class="h" d="M129.76,43.31c-1.52.03-2.9-.25-4.15-.86-1.25-.61-2.24-1.5-2.99-2.69-.74-1.19-1.13-2.64-1.17-4.34v-.44c-.05-1.71.28-3.17.97-4.39s1.65-2.16,2.87-2.82c1.22-.66,2.59-1.01,4.11-1.04,1.5-.03,2.79.2,3.88.71,1.09.5,1.97,1.21,2.66,2.11.68.9,1.14,1.93,1.38,3.09l-3.84.91c-.1-.63-.3-1.2-.61-1.7-.31-.5-.73-.89-1.28-1.18-.54-.28-1.22-.42-2.02-.4s-1.52.21-2.16.57c-.64.36-1.13.89-1.48,1.58-.35.69-.52,1.54-.5,2.53v.32c.03.99.23,1.83.62,2.5.38.68.9,1.18,1.55,1.52s1.38.49,2.18.48c1.2-.03,2.11-.36,2.72-.99.61-.64.99-1.46,1.13-2.48l3.88.83c-.25,1.12-.7,2.15-1.34,3.08-.64.93-1.5,1.67-2.56,2.23-1.06.55-2.35.84-3.84.88Z"/>
        <path class="e" d="M129.53,44.81c-1.65,0-3.19-.34-4.57-1.01-1.5-.73-2.71-1.82-3.6-3.24-.89-1.41-1.36-3.13-1.4-5.11v-.45c-.05-1.97.34-3.71,1.17-5.16.83-1.46,1.99-2.6,3.46-3.4,1.43-.77,3.04-1.18,4.79-1.22,1.71-.04,3.25.25,4.54.85,1.31.6,2.39,1.47,3.22,2.56.82,1.08,1.37,2.32,1.66,3.69.16.79-.34,1.57-1.12,1.76l-3.39.8,3.55.76c.39.08.73.32.95.66.22.34.29.75.2,1.14-.29,1.31-.82,2.53-1.57,3.61-.78,1.13-1.83,2.04-3.11,2.7-1.27.65-2.78,1-4.5,1.04h0c-.09,0-.18,0-.27,0ZM129.76,43.31h0,0ZM129.67,28.23c-.08,0-.16,0-.24,0-1.29.03-2.41.31-3.43.86-.98.53-1.72,1.26-2.27,2.24-.55.97-.82,2.19-.79,3.62v.45c.04,1.42.36,2.63.95,3.58.6.95,1.37,1.65,2.37,2.13,1.03.5,2.18.75,3.46.71h0c1.26-.03,2.33-.27,3.19-.71.85-.44,1.51-1.01,2.02-1.75.24-.35.45-.72.63-1.11l-.86-.19c-.27.66-.64,1.25-1.12,1.75-.89.93-2.16,1.42-3.77,1.46-1.06.02-2.02-.19-2.9-.64-.91-.47-1.64-1.18-2.17-2.11-.51-.89-.78-1.97-.8-3.21v-.31c-.03-1.24.19-2.33.66-3.24.49-.96,1.19-1.7,2.08-2.2.85-.48,1.82-.74,2.87-.77,1.05-.03,1.98.17,2.74.57.79.41,1.41.99,1.86,1.72.14.22.26.45.36.69l.89-.21c-.18-.39-.4-.75-.66-1.09-.54-.71-1.22-1.25-2.09-1.65-.82-.38-1.82-.57-2.98-.57ZM129.71,31.77s-.07,0-.11,0c-.55.01-1.03.13-1.45.37-.38.22-.67.53-.89.96-.24.47-.35,1.08-.33,1.81v.31c.02.74.16,1.34.42,1.8.24.42.54.72.93.92.43.22.92.32,1.46.31.78-.02,1.34-.2,1.67-.53.39-.41.63-.95.73-1.66.06-.41.29-.78.63-1.02.06-.04.12-.08.19-.11-.11-.04-.22-.1-.32-.16-.35-.23-.58-.6-.65-1.01-.07-.44-.2-.81-.4-1.14-.16-.27-.39-.47-.69-.63-.29-.15-.69-.23-1.18-.23Z"/>
      </g>
      <g>
        <path class="h" d="M147.45,42.92c-2.05.04-3.73-.36-5.06-1.22-1.33-.86-2.15-2.11-2.46-3.75l3.65-1.03c.16.74.42,1.31.78,1.72.36.42.8.71,1.32.87.52.17,1.09.25,1.7.23.93-.02,1.61-.2,2.05-.54.44-.34.65-.75.64-1.23-.01-.49-.23-.85-.66-1.11-.43-.25-1.11-.46-2.04-.6l-.89-.14c-1.1-.19-2.11-.45-3.02-.8-.91-.35-1.65-.85-2.22-1.49-.56-.64-.85-1.48-.88-2.51-.03-1.56.51-2.77,1.63-3.63,1.12-.86,2.61-1.31,4.46-1.35,1.75-.04,3.21.32,4.39,1.07,1.18.75,1.96,1.76,2.34,3.02l-3.68,1.22c-.19-.8-.54-1.36-1.06-1.69-.52-.33-1.17-.48-1.93-.46-.76.02-1.34.16-1.73.43-.4.27-.59.64-.58,1.1.01.51.23.88.66,1.11.43.23,1,.41,1.72.52l.89.14c1.19.19,2.26.44,3.23.77s1.74.81,2.31,1.44c.57.63.87,1.49.9,2.59.04,1.65-.53,2.93-1.7,3.85-1.17.92-2.76,1.41-4.76,1.45Z"/>
        <path class="e" d="M147.15,44.42c-2.2,0-4.07-.49-5.57-1.46-1.68-1.09-2.73-2.68-3.12-4.73-.14-.76.32-1.51,1.07-1.72l1.9-.54c-.5-.33-.94-.71-1.32-1.14-.8-.91-1.22-2.08-1.25-3.47-.04-2.03.72-3.71,2.22-4.85,1.37-1.05,3.17-1.61,5.34-1.66,2.06-.04,3.81.4,5.23,1.31,1.48.95,2.48,2.24,2.97,3.84.24.78-.19,1.61-.96,1.86l-1.74.58c.88.39,1.62.92,2.21,1.57.82.9,1.25,2.1,1.28,3.57.05,2.1-.74,3.86-2.28,5.06-1.43,1.12-3.33,1.72-5.66,1.77-.11,0-.22,0-.33,0ZM141.85,38.98c.31.6.76,1.08,1.36,1.47,1.06.69,2.47,1.01,4.21.98h0c1.66-.04,2.96-.42,3.87-1.13.8-.63,1.16-1.47,1.13-2.64-.02-.73-.18-1.26-.51-1.62-.4-.44-.96-.78-1.68-1.02-.89-.3-1.89-.54-2.98-.71l-.89-.14c-.9-.14-1.62-.36-2.21-.68-.9-.49-1.41-1.34-1.44-2.39-.02-.97.41-1.81,1.23-2.37.65-.45,1.48-.67,2.55-.7,1.05-.02,1.98.21,2.75.69.45.28.82.65,1.11,1.1l.7-.23c-.27-.33-.61-.62-1.02-.88-.92-.59-2.11-.86-3.55-.84-1.52.03-2.73.38-3.59,1.04-.73.56-1.07,1.33-1.04,2.4.01.68.18,1.19.51,1.56.4.46.93.81,1.62,1.07.82.31,1.74.56,2.74.73l.87.14c1.13.18,1.97.44,2.57.8.88.52,1.37,1.36,1.39,2.37.02.96-.41,1.83-1.22,2.45-.7.54-1.66.82-2.93.85-.78.02-1.52-.08-2.19-.3-.78-.25-1.45-.7-1.99-1.32-.22-.26-.42-.55-.58-.88l-.8.22ZM145.34,37.44c.06.1.11.17.16.23.18.21.38.34.64.42.36.12.76.17,1.21.16.66-.01.97-.12,1.09-.18-.23-.09-.62-.21-1.31-.32l-.89-.14c-.31-.05-.61-.11-.9-.17ZM146.11,31.05c.19.05.42.1.7.15l.89.14s.03,0,.05,0c-.03-.04-.07-.07-.11-.09-.27-.17-.63-.25-1.1-.24-.18,0-.32.02-.44.03Z"/>
      </g>
      <g>
        <path class="h" d="M189.51,41.56l-.48-22.15,4.18-.09.48,22.15-4.18.09Z"/>
        <path class="e" d="M189.51,43.06c-.39,0-.76-.15-1.04-.42-.29-.28-.45-.65-.46-1.05l-.48-22.15c-.02-.83.64-1.51,1.47-1.53l4.18-.09c.43-.01.78.14,1.07.42.29.27.45.65.46,1.05l.48,22.15c.02.83-.64,1.51-1.47,1.53l-4.18.09h-.03ZM190.56,20.88l.42,19.15,1.18-.03-.42-19.15-1.18.03Z"/>
      </g>
      <g>
        <path class="h" d="M197.99,41.37l-.48-22.15,3.99-.09.48,22.15-3.99.09Z"/>
        <path class="e" d="M197.99,42.87c-.39,0-.76-.15-1.04-.42-.29-.28-.45-.65-.46-1.05l-.48-22.15c-.02-.83.64-1.51,1.47-1.53l3.99-.09c.43-.01.78.14,1.07.42.29.27.45.65.46,1.05l.48,22.14c.02.83-.64,1.51-1.47,1.53l-3.99.09h-.03ZM199.04,20.69l.42,19.15.99-.02-.42-19.15-.99.02Z"/>
      </g>
      <g>
        <path class="h" d="M206.41,41.19l-.48-22.15,3.99-.09.48,22.15-3.99.09Z"/>
        <path class="e" d="M206.41,42.69c-.39,0-.76-.15-1.04-.42-.29-.28-.45-.65-.46-1.05l-.48-22.15c0-.4.14-.78.42-1.07.28-.29.65-.45,1.05-.46l3.99-.09s.02,0,.03,0c.81,0,1.48.65,1.5,1.47l.48,22.14c.02.83-.64,1.51-1.47,1.53l-3.99.09h-.03ZM207.45,20.51l.42,19.15.99-.02-.42-19.15-.99.02Z"/>
      </g>
      <g>
        <path class="h" d="M220.8,41.13c-1.22.03-2.3-.23-3.23-.77s-1.66-1.3-2.19-2.28c-.53-.98-.81-2.11-.83-3.4l-.2-9.36,3.99-.09.2,9.05c.03,1.18.33,2.06.93,2.64.59.58,1.43.86,2.5.83,1.22-.03,2.16-.45,2.82-1.28.66-.83.97-1.97.94-3.42l-.17-7.97,3.99-.09.34,15.69-3.92.08-.04-2.06h-.57c-.24.55-.7,1.07-1.39,1.59-.69.52-1.73.8-3.15.83Z"/>
        <path class="e" d="M220.64,42.63c-1.42,0-2.7-.33-3.81-.97-1.17-.68-2.1-1.64-2.76-2.87-.64-1.19-.98-2.56-1.01-4.08l-.2-9.36c-.02-.83.64-1.51,1.47-1.53l3.99-.09c.42-.03.78.14,1.07.42.29.27.45.65.46,1.05l.2,9.05c.01.53.1,1.24.47,1.6.11.11.46.42,1.42.41,1.01-.02,1.44-.42,1.68-.71.43-.54.64-1.37.61-2.46l-.17-7.97c0-.4.14-.78.42-1.07.28-.29.65-.45,1.05-.46l3.99-.09s.02,0,.03,0c.81,0,1.48.65,1.5,1.47l.34,15.69c0,.4-.14.78-.42,1.07-.27.29-.65.45-1.05.46l-3.92.08c-.48,0-1-.25-1.28-.66-.94.65-2.21.99-3.88,1.03h0c-.07,0-.13,0-.2,0ZM220.8,41.13h0,0ZM215.88,26.78l.17,7.86c.02,1.04.24,1.96.66,2.72.4.74.92,1.29,1.62,1.69.69.4,1.47.58,2.44.57,1.31-.03,1.93-.29,2.21-.48-.31.06-.64.09-.98.1-1.49.03-2.69-.39-3.58-1.26-.88-.86-1.34-2.1-1.38-3.68l-.16-7.55-.99.02ZM226.1,37.22c.32.04.62.18.85.4.29.28.45.65.46,1.05v.56s.94-.02.94-.02l-.28-12.69-.99.02.14,6.47c.04,1.71-.34,3.12-1.12,4.2Z"/>
      </g>
      <g>
        <path class="h" d="M240.83,40.88c-2.05.04-3.73-.36-5.06-1.22-1.33-.86-2.15-2.11-2.46-3.75l3.65-1.03c.16.74.42,1.31.78,1.73.36.41.8.71,1.32.87.52.17,1.09.24,1.7.23.93-.02,1.61-.2,2.05-.54.44-.34.65-.75.64-1.23s-.23-.85-.66-1.11c-.43-.25-1.11-.46-2.04-.6l-.89-.14c-1.1-.19-2.11-.45-3.02-.8-.92-.35-1.65-.85-2.22-1.49-.56-.64-.86-1.48-.88-2.51-.03-1.56.51-2.77,1.63-3.63,1.12-.86,2.61-1.31,4.46-1.35,1.75-.04,3.21.32,4.39,1.07,1.18.75,1.96,1.76,2.34,3.02l-3.68,1.22c-.19-.8-.54-1.36-1.07-1.69-.52-.33-1.17-.48-1.92-.46-.76.02-1.34.16-1.73.43-.39.27-.59.64-.58,1.1.01.51.23.88.66,1.11.43.23,1,.41,1.72.52l.89.14c1.19.19,2.26.44,3.23.77.97.33,1.74.81,2.31,1.44.57.63.87,1.49.9,2.59.04,1.65-.53,2.93-1.7,3.85-1.17.92-2.76,1.41-4.76,1.45Z"/>
        <path class="e" d="M240.54,42.38c-2.2,0-4.07-.49-5.58-1.46-1.68-1.09-2.73-2.68-3.11-4.73-.14-.76.32-1.51,1.07-1.72l1.9-.54c-.5-.33-.94-.71-1.32-1.14-.8-.91-1.22-2.08-1.25-3.47-.04-2.03.72-3.71,2.22-4.85,1.38-1.05,3.17-1.61,5.34-1.66,2.07-.04,3.81.4,5.23,1.31,1.48.95,2.48,2.24,2.97,3.84.24.78-.19,1.61-.96,1.86l-1.74.58c.88.39,1.62.92,2.21,1.57.82.9,1.25,2.1,1.29,3.57.05,2.1-.74,3.85-2.28,5.06-1.43,1.12-3.33,1.72-5.66,1.77h0c-.11,0-.22,0-.33,0ZM235.23,36.94c.31.6.76,1.08,1.36,1.47,1.06.69,2.47,1.01,4.21.98h0c1.66-.04,2.96-.42,3.87-1.13.8-.63,1.16-1.47,1.13-2.64-.02-.73-.18-1.26-.51-1.62-.4-.44-.96-.78-1.68-1.02-.89-.3-1.89-.54-2.98-.71l-.89-.14c-.9-.14-1.62-.36-2.21-.68-.9-.49-1.41-1.34-1.44-2.39-.02-.97.42-1.81,1.22-2.37.65-.45,1.48-.68,2.55-.7,1.05-.02,1.98.21,2.75.69.45.28.82.65,1.11,1.1l.7-.23c-.27-.33-.61-.62-1.02-.88-.92-.59-2.1-.87-3.55-.84-1.52.03-2.73.38-3.59,1.04-.73.56-1.07,1.33-1.04,2.4.01.68.18,1.19.51,1.56.4.46.93.81,1.62,1.07.81.31,1.74.56,2.74.73l.87.14c1.13.18,1.97.44,2.57.8.88.52,1.37,1.36,1.39,2.37.02.96-.41,1.83-1.22,2.45-.7.54-1.66.82-2.93.85-.78.01-1.52-.09-2.19-.3-.78-.25-1.45-.7-1.99-1.32-.22-.26-.42-.55-.59-.88l-.8.22ZM238.73,35.4c.05.09.1.16.16.23.18.21.38.34.64.42.36.12.76.17,1.21.16.66-.01.97-.12,1.09-.18-.22-.09-.62-.21-1.31-.32l-.88-.14c-.31-.05-.61-.11-.9-.17ZM239.5,29.01c.19.05.42.1.71.15l.89.14h.05s-.07-.06-.11-.08c-.27-.17-.63-.25-1.1-.24-.18,0-.32.02-.44.03Z"/>
      </g>
      <g>
        <path class="h" d="M256.58,40.09c-1.03.02-1.88-.28-2.54-.91s-1-1.48-1.02-2.56l-.19-8.86-3.92.09-.07-3.29,3.92-.09-.11-4.87,3.99-.09.11,4.87,4.3-.09.07,3.29-4.3.09.18,8.16c.01.63.32.94.91.93l3.04-.07.07,3.29-4.43.1Z"/>
        <path class="e" d="M256.47,41.59c-1.38,0-2.54-.45-3.46-1.33-.95-.91-1.45-2.13-1.48-3.61l-.16-7.36-2.42.05c-.4,0-.78-.14-1.07-.42-.29-.28-.45-.65-.46-1.05l-.07-3.29c-.02-.83.64-1.51,1.47-1.53l2.42-.05-.07-3.37c0-.4.14-.78.42-1.07.28-.29.65-.45,1.05-.46l3.99-.09s.02,0,.03,0c.81,0,1.48.65,1.5,1.47l.07,3.37,2.8-.06c.82-.03,1.51.64,1.53,1.47l.07,3.29c0,.4-.14.78-.42,1.07-.28.29-.65.45-1.05.46l-2.8.06.13,6.11,2.42-.05c.43-.02.78.14,1.07.42.29.28.45.65.46,1.05l.07,3.29c.02.83-.64,1.51-1.47,1.53l-4.43.1s-.09,0-.14,0ZM256.58,40.09h0,0ZM252.83,26.27c.81,0,1.48.65,1.5,1.47l.19,8.86c.02.89.33,1.29.56,1.51.23.22.62.53,1.47.49l2.93-.06v-.29s-1.54.03-1.54.03c-.02,0-.05,0-.07,0-1.39,0-2.34-.96-2.37-2.4l-.18-8.16c-.02-.83.64-1.51,1.47-1.53l2.8-.06v-.29s-2.81.06-2.81.06c-.44.01-.78-.14-1.07-.42s-.45-.65-.46-1.05l-.07-3.37-.99.02.07,3.37c0,.4-.14.78-.42,1.07-.28.29-.65.45-1.05.46l-2.42.05v.29s2.43-.05,2.43-.05c.01,0,.02,0,.03,0Z"/>
      </g>
      <g>
        <path class="h" d="M264.99,39.91l-.34-15.69,3.92-.09.04,1.77h.57c.22-.65.59-1.12,1.12-1.43.53-.31,1.16-.47,1.87-.48l1.9-.04.08,3.54-1.96.04c-1.01.02-1.84.31-2.48.86-.64.55-.95,1.39-.93,2.5l.19,8.92-3.99.09Z"/>
        <path class="e" d="M264.99,41.41c-.39,0-.76-.15-1.04-.42-.29-.28-.45-.65-.46-1.05l-.34-15.69c0-.4.14-.78.42-1.07.28-.29.65-.45,1.05-.46l3.92-.09c.41-.01.85.18,1.13.48.72-.39,1.56-.6,2.47-.62l1.9-.04c.84-.03,1.51.64,1.53,1.47l.08,3.54c0,.4-.14.78-.42,1.07-.28.29-.65.45-1.05.46l-1.96.04c-.66.01-1.16.18-1.53.5-.11.09-.43.37-.41,1.34l.19,8.92c.02.83-.64,1.51-1.47,1.53l-3.99.09h-.03ZM266.18,25.68l.28,12.69.99-.02-.16-7.42c-.04-1.82.65-2.91,1.29-3.53-.37,0-.73-.16-1-.42-.29-.27-.45-.65-.46-1.05v-.27s-.93.02-.93.02ZM272.61,25.48h-.4c-.47.02-.84.11-1.16.29-.12.07-.28.19-.4.47.47-.13.97-.2,1.51-.21h.46s-.01-.55-.01-.55Z"/>
      </g>
      <g>
        <path class="h" d="M282.02,39.98c-1.12.02-2.12-.15-3.02-.52-.89-.37-1.61-.93-2.14-1.66-.53-.74-.81-1.64-.83-2.72-.02-1.08.21-1.98.72-2.72.5-.74,1.21-1.3,2.12-1.69.91-.39,1.95-.6,3.14-.62l4.3-.09-.02-.89c-.02-.74-.26-1.34-.74-1.8s-1.22-.69-2.23-.66c-.99.02-1.72.26-2.2.73-.48.46-.78,1.06-.91,1.78l-3.7-1.15c.24-.81.63-1.55,1.17-2.23.54-.68,1.28-1.23,2.21-1.66.93-.43,2.07-.66,3.42-.69,2.07-.04,3.71.44,4.94,1.44,1.22,1.01,1.86,2.49,1.9,4.45l.13,5.85c.01.63.32.94.91.93l1.27-.03.07,3.29-2.66.06c-.78.02-1.43-.16-1.94-.53s-.78-.87-.79-1.5v-.03s-.6.01-.6.01c-.08.25-.26.59-.55,1.01-.29.42-.74.79-1.37,1.12-.62.33-1.49.51-2.58.53ZM282.65,36.74c1.12-.02,2.02-.36,2.72-.99.69-.64,1.03-1.47,1.01-2.51v-.32s-4.03.09-4.03.09c-.74.02-1.32.19-1.73.51-.42.33-.62.77-.6,1.34s.24,1.03.69,1.38,1.1.51,1.94.5Z"/>
        <path class="e" d="M281.82,41.48c-1.23,0-2.37-.21-3.39-.64-1.15-.48-2.08-1.21-2.78-2.17-.71-.98-1.09-2.18-1.12-3.56-.03-1.39.3-2.6.97-3.6.47-.7,1.08-1.28,1.82-1.74l-1.27-.4c-.78-.24-1.22-1.07-.99-1.85.29-.99.78-1.92,1.44-2.75.68-.85,1.61-1.55,2.75-2.08,1.11-.52,2.46-.8,4.02-.83,2.42-.06,4.42.55,5.92,1.78,1.57,1.29,2.4,3.17,2.45,5.58l.11,5.3h.65c.39-.04.78.13,1.07.4s.45.65.46,1.05l.07,3.29c.02.83-.64,1.51-1.47,1.53l-2.66.06c-1.12.02-2.07-.25-2.85-.81-.12-.09-.24-.18-.34-.28-.38.37-.84.7-1.4,1-.84.44-1.9.67-3.25.7h0c-.08,0-.16,0-.24,0ZM282.02,39.98h0,0ZM281.69,31.55c-.84.05-1.6.21-2.25.49-.65.28-1.12.65-1.46,1.15-.33.48-.47,1.08-.46,1.85.02.77.2,1.38.55,1.87.37.51.86.89,1.5,1.16.7.29,1.51.43,2.41.41,1.07-.02,1.63-.21,1.92-.36.02-.01.04-.02.06-.03-.41.09-.84.14-1.29.15-1.19.04-2.17-.25-2.89-.81-.81-.63-1.25-1.5-1.28-2.53-.02-1.03.4-1.94,1.18-2.56.54-.42,1.21-.69,2-.79ZM287.23,35.81c.76.05,1.37.67,1.4,1.45,0,.21.04.27.17.36.25.18.6.26,1.04.25l1.16-.03v-.3c-1.3-.07-2.18-1.01-2.21-2.39l-.13-5.85c-.03-1.52-.48-2.6-1.35-3.33-.95-.78-2.24-1.13-3.95-1.1-1.14.03-2.08.21-2.82.55-.72.33-1.28.75-1.67,1.24-.1.12-.19.24-.27.36l.72.22c.21-.37.47-.7.77-1,.76-.74,1.84-1.12,3.22-1.15,1.43-.03,2.54.34,3.31,1.09.75.74,1.16,1.72,1.19,2.84l.02.88c0,.4-.14.78-.42,1.07-.23.24-.53.4-.86.45.74.08,1.32.69,1.34,1.45v.32c.03.97-.19,1.85-.64,2.61ZM284.52,34.46l-2.14.05c-.55.01-.77.14-.84.19-.02.02-.03.06-.03.13,0,.12.02.15.11.23.06.05.31.19.99.18h0c.75-.02,1.31-.21,1.74-.6.06-.06.12-.12.17-.18ZM283.45,28.09s-.07,0-.11,0c-.57.01-1,.12-1.19.3-.05.04-.09.09-.13.14l2.59-.06c-.04-.06-.08-.11-.13-.15-.06-.06-.3-.24-1.04-.24Z"/>
      </g>
      <g>
        <path class="h" d="M300.3,39.14c-1.03.02-1.88-.28-2.54-.91-.66-.63-1-1.48-1.02-2.56l-.19-8.86-3.92.09-.07-3.29,3.92-.09-.11-4.87,3.99-.09.11,4.87,4.3-.09.07,3.29-4.3.09.18,8.16c.01.63.32.94.91.93l3.04-.07.07,3.29-4.43.1Z"/>
        <path class="e" d="M300.19,40.64c-1.38,0-2.54-.45-3.46-1.33-.95-.91-1.45-2.12-1.48-3.61l-.16-7.36-2.42.05s-.02,0-.03,0c-.81,0-1.48-.65-1.5-1.47l-.07-3.29c0-.4.14-.78.42-1.07.28-.29.65-.45,1.05-.46l2.42-.05-.07-3.37c0-.4.14-.78.42-1.07.28-.29.65-.45,1.05-.46l3.99-.09s.02,0,.03,0c.81,0,1.48.65,1.5,1.47l.07,3.37,2.8-.06c.43-.01.78.14,1.07.42.29.27.45.65.46,1.05l.07,3.29c.02.83-.64,1.51-1.47,1.53l-2.8.06.13,6.11,2.42-.05c.43-.02.78.14,1.07.42.29.28.45.65.46,1.05l.07,3.29c.02.83-.64,1.51-1.47,1.53l-4.43.1h0s-.09,0-.14,0ZM300.3,39.14h0,0ZM296.55,25.31c.81,0,1.48.65,1.5,1.47l.19,8.86c.02.89.33,1.29.56,1.51s.63.52,1.47.49l2.93-.06v-.29s-1.54.03-1.54.03c-.02,0-.04,0-.07,0-1.39,0-2.34-.96-2.37-2.4l-.18-8.16c-.02-.83.64-1.51,1.47-1.53l2.8-.06v-.29s-2.81.06-2.81.06c-.43.01-.78-.14-1.07-.42-.29-.27-.45-.65-.46-1.05l-.07-3.37-.99.02.07,3.37c0,.4-.14.78-.42,1.07-.28.29-.65.45-1.05.46l-2.42.05v.29s2.43-.05,2.43-.05c.01,0,.02,0,.03,0Z"/>
      </g>
      <g>
        <path class="h" d="M310.32,21.38c-.72.02-1.33-.2-1.83-.66-.51-.45-.77-1.06-.78-1.82s.22-1.38.7-1.85c.48-.47,1.09-.72,1.8-.74.74-.02,1.35.2,1.85.66.5.45.75,1.06.77,1.82s-.21,1.38-.69,1.85c-.48.48-1.08.72-1.82.74ZM308.71,38.95l-.34-15.69,3.99-.09.34,15.69-3.99.09Z"/>
        <path class="e" d="M308.71,40.45c-.81,0-1.48-.65-1.5-1.47l-.34-15.69c0-.4.14-.78.42-1.07.1-.1.21-.19.34-.26-.05-.04-.09-.08-.14-.12-.81-.73-1.25-1.73-1.28-2.9-.03-1.17.38-2.19,1.16-2.96.75-.74,1.73-1.14,2.82-1.16,1.14-.03,2.12.34,2.89,1.05.79.73,1.23,1.73,1.25,2.89.03,1.16-.36,2.18-1.13,2.94-.05.05-.1.09-.15.14.47.25.79.73.8,1.29l.34,15.69c0,.4-.14.78-.42,1.07-.28.29-.65.45-1.05.46l-3.99.09h-.03ZM309.9,24.73l.28,12.69.99-.02-.28-12.69-.99.02ZM310.32,21.38h0,0ZM310.29,17.82s-.03,0-.04,0c-.33,0-.58.1-.79.31-.13.13-.26.32-.25.75,0,.43.15.61.28.73.22.2.46.27.8.28h0c.45,0,.66-.16.79-.3.13-.13.26-.32.25-.76,0-.44-.15-.62-.28-.75-.13-.12-.34-.26-.76-.26Z"/>
      </g>
      <g>
        <path class="h" d="M324.6,39.05c-1.56.03-2.97-.25-4.23-.86-1.26-.61-2.26-1.5-3-2.69-.74-1.19-1.13-2.62-1.17-4.31v-.51c-.05-1.69.28-3.14.97-4.36s1.65-2.16,2.88-2.82c1.23-.66,2.63-1.01,4.19-1.04,1.56-.03,2.97.25,4.23.86,1.26.6,2.26,1.5,3,2.69s1.13,2.62,1.17,4.31v.51c.05,1.69-.28,3.14-.97,4.36-.69,1.22-1.65,2.16-2.88,2.82-1.23.66-2.63,1.01-4.19,1.04ZM324.53,35.51c1.22-.03,2.23-.44,3.01-1.25.78-.81,1.16-1.95,1.13-3.43v-.32c-.04-1.48-.46-2.6-1.27-3.37-.81-.77-1.83-1.15-3.08-1.12-1.22.03-2.23.44-3.01,1.25-.78.81-1.16,1.95-1.13,3.43v.32c.04,1.48.46,2.6,1.28,3.37.82.77,1.84,1.15,3.06,1.12Z"/>
        <path class="e" d="M324.36,40.55c-1.68,0-3.24-.34-4.63-1.01-1.51-.73-2.73-1.82-3.62-3.24-.89-1.42-1.36-3.12-1.4-5.08v-.51c-.05-1.95.34-3.68,1.17-5.13.83-1.46,2-2.61,3.48-3.4,1.43-.77,3.07-1.18,4.86-1.22,1.77-.04,3.44.3,4.91,1,1.51.73,2.73,1.82,3.62,3.24.89,1.41,1.36,3.12,1.4,5.07v.51c.05,1.95-.34,3.68-1.17,5.13-.83,1.46-2,2.61-3.48,3.4-1.43.77-3.07,1.18-4.86,1.22-.09,0-.19,0-.28,0ZM324.49,23.97c-.07,0-.14,0-.21,0-1.32.03-2.5.32-3.51.86-.99.53-1.73,1.26-2.29,2.23-.55.97-.82,2.18-.79,3.58v.51c.04,1.4.36,2.6.95,3.55.59.95,1.37,1.65,2.38,2.13,1.04.5,2.25.74,3.54.71,1.32-.03,2.5-.32,3.51-.86.99-.53,1.73-1.26,2.29-2.23.55-.98.82-2.18.79-3.58v-.51c-.04-1.4-.36-2.6-.95-3.55-.6-.95-1.37-1.65-2.38-2.13-.98-.47-2.1-.71-3.33-.71ZM324.4,37.01c-1.56,0-2.9-.52-3.97-1.53-1.12-1.06-1.71-2.55-1.75-4.43v-.32c-.05-1.89.47-3.4,1.54-4.5,1.07-1.1,2.43-1.67,4.06-1.71,1.67-.04,3.05.48,4.15,1.54,1.1,1.05,1.68,2.54,1.72,4.42v.32c.05,1.88-.47,3.4-1.54,4.5-1.06,1.1-2.43,1.67-4.05,1.71h0c-.05,0-.1,0-.15,0ZM324.53,35.51h0,0ZM324.45,27.52s-.06,0-.1,0c-.83.02-1.46.27-1.97.8-.5.51-.73,1.28-.7,2.35v.32c.03,1.07.29,1.82.81,2.32.53.5,1.18.72,2,.71.83-.02,1.46-.27,1.97-.8.5-.51.73-1.28.71-2.35v-.32c-.03-1.07-.29-1.83-.8-2.32-.5-.48-1.11-.71-1.91-.71Z"/>
      </g>
      <g>
        <path class="h" d="M336.49,38.35l-.34-15.69,3.92-.09.04,2.06h.57c.24-.57.7-1.1,1.39-1.61.69-.51,1.73-.78,3.15-.81,1.22-.03,2.3.23,3.23.77.93.54,1.66,1.29,2.19,2.26.53.97.81,2.11.83,3.42l.2,9.36-3.99.09-.2-9.05c-.03-1.18-.33-2.06-.93-2.64-.59-.58-1.43-.85-2.5-.83-1.22.03-2.16.45-2.82,1.28s-.97,1.97-.94,3.42l.17,7.97-3.99.09Z"/>
        <path class="e" d="M336.49,39.85c-.39,0-.76-.15-1.04-.42-.29-.28-.45-.65-.46-1.05l-.34-15.69c-.02-.83.64-1.51,1.47-1.53l3.92-.09c.43-.02.78.14,1.07.42.08.07.14.15.2.24.94-.65,2.21-.98,3.88-1.02,1.49-.03,2.85.29,4.01.97,1.17.67,2.09,1.63,2.75,2.84.64,1.18.98,2.56,1.02,4.1l.2,9.36c.02.83-.64,1.51-1.47,1.53l-3.99.09c-.44,0-.78-.14-1.07-.42s-.45-.65-.46-1.05l-.2-9.05c-.01-.53-.1-1.23-.48-1.6-.11-.11-.42-.43-1.42-.41-1.01.02-1.44.42-1.68.71-.43.54-.64,1.37-.61,2.46l.17,7.97c.02.83-.64,1.51-1.47,1.53l-3.99.09h-.03ZM337.68,24.12l.28,12.69.99-.02-.14-6.47c-.04-1.71.34-3.12,1.12-4.21-.73-.09-1.29-.7-1.31-1.46v-.56s-.94.02-.94.02ZM344.18,24.08c1.41,0,2.57.42,3.42,1.26.88.86,1.35,2.1,1.38,3.68l.16,7.55.99-.02-.17-7.86c-.02-1.06-.24-1.98-.65-2.73-.4-.73-.93-1.28-1.62-1.68-.7-.4-1.49-.59-2.45-.57-1.35.03-1.97.3-2.24.48.32-.06.66-.1,1.01-.1.05,0,.11,0,.16,0Z"/>
      </g>
    </g>
    <g>
      <path class="g" d="M29.71,46.22c-1.52.03-2.91-.28-4.17-.94-1.25-.66-2.26-1.65-3.02-2.95-.76-1.31-1.16-2.92-1.2-4.82l-.12-5.34c-.06-2.86.69-5.07,2.27-6.64,1.58-1.57,3.74-2.39,6.49-2.45,2.73-.06,4.86.62,6.38,2.04,1.52,1.42,2.31,3.37,2.37,5.84v.13s-4.13.09-4.13.09v-.25c-.02-.78-.2-1.49-.54-2.12-.34-.63-.85-1.12-1.51-1.48-.66-.36-1.49-.52-2.49-.5-1.48.03-2.64.51-3.47,1.44-.83.93-1.22,2.18-1.19,3.74l.12,5.46c.03,1.55.48,2.78,1.35,3.71.87.92,2.06,1.37,3.59,1.33,1.52-.03,2.63-.46,3.31-1.28.68-.82,1.01-1.84.98-3.07v-.32s-5.28.12-5.28.12l-.08-3.56,9.4-.21.25,11.37-3.88.08-.05-2.13h-.57c-.14.38-.37.76-.69,1.17-.32.41-.81.76-1.46,1.05-.65.29-1.55.45-2.69.47Z"/>
      <path class="g" d="M43.17,45.48l-.34-15.76,3.94-.09.04,1.78h.57c.22-.65.6-1.13,1.13-1.44.53-.31,1.16-.47,1.88-.48l1.91-.04.08,3.56-1.97.04c-1.02.02-1.85.31-2.49.86-.65.56-.96,1.39-.93,2.52l.2,8.96-4,.09Z"/>
      <path class="g" d="M60.27,45.56c-1.12.02-2.13-.15-3.03-.52-.9-.37-1.62-.93-2.15-1.67-.54-.74-.81-1.65-.84-2.73s.22-1.99.72-2.73c.5-.74,1.21-1.31,2.12-1.7.91-.39,1.96-.6,3.15-.62l4.32-.09-.02-.89c-.02-.74-.26-1.34-.74-1.81-.48-.47-1.22-.69-2.24-.67-1,.02-1.73.27-2.21.73-.48.47-.78,1.06-.91,1.78l-3.71-1.16c.24-.81.63-1.56,1.18-2.23.55-.68,1.29-1.24,2.22-1.67.93-.43,2.08-.67,3.43-.69,2.08-.05,3.73.44,4.96,1.45,1.23,1.01,1.87,2.5,1.91,4.47l.13,5.88c.01.64.32.95.91.93l1.27-.03.07,3.3-2.67.06c-.78.02-1.43-.16-1.95-.53-.52-.37-.78-.87-.8-1.51v-.03s-.6.01-.6.01c-.08.26-.26.59-.55,1.01-.29.42-.75.79-1.37,1.13-.63.33-1.49.51-2.59.53ZM60.89,42.3c1.12-.02,2.03-.36,2.73-1,.7-.64,1.03-1.48,1.01-2.52v-.32s-4.04.09-4.04.09c-.74.02-1.32.19-1.74.52-.42.33-.62.78-.61,1.35.01.57.25,1.03.7,1.38.45.35,1.1.52,1.95.5Z"/>
      <path class="g" d="M73.86,51.17l-.48-22.11,3.94-.09.04,1.91h.57c.35-.63.9-1.19,1.65-1.69.75-.49,1.84-.75,3.26-.79,1.27-.03,2.45.26,3.55.86,1.09.6,1.98,1.5,2.67,2.69.68,1.19,1.04,2.65,1.08,4.36v.51c.05,1.71-.25,3.18-.88,4.4-.63,1.22-1.48,2.16-2.54,2.81-1.07.65-2.24.99-3.51,1.01-.95.02-1.75-.07-2.41-.28-.65-.21-1.18-.48-1.57-.82-.4-.34-.72-.69-.96-1.04h-.57s.18,8.18.18,8.18l-4,.09ZM81.92,41.59c1.25-.03,2.27-.45,3.07-1.26.8-.81,1.18-1.98,1.15-3.51v-.32c-.04-1.53-.48-2.68-1.32-3.45-.84-.77-1.88-1.15-3.11-1.12-1.23.03-2.25.45-3.06,1.26-.81.81-1.2,1.98-1.16,3.51v.32c.04,1.52.48,2.67,1.32,3.45.84.78,1.88,1.15,3.11,1.12Z"/>
      <path class="g" d="M93.99,44.37l-.49-22.24,4-.09.18,8.42h.57c.16-.35.42-.7.77-1.05.35-.35.83-.64,1.43-.87.6-.23,1.36-.36,2.3-.38,1.23-.03,2.31.23,3.24.77.93.54,1.66,1.3,2.19,2.27.53.97.81,2.12.84,3.43l.21,9.4-4,.09-.2-9.09c-.03-1.19-.34-2.07-.93-2.65-.6-.58-1.43-.86-2.51-.84-1.23.03-2.17.46-2.83,1.29-.66.83-.97,1.98-.94,3.44l.17,8.01-4,.09Z"/>
      <path class="g" d="M115.18,26.3c-.72.02-1.33-.2-1.84-.66-.51-.46-.77-1.06-.79-1.83s.22-1.38.71-1.86c.49-.48,1.09-.72,1.81-.74.74-.02,1.36.2,1.86.66.5.46.75,1.06.77,1.83s-.21,1.38-.69,1.86c-.48.48-1.09.72-1.83.74ZM113.56,43.95l-.34-15.76,4-.09.34,15.76-4,.09Z"/>
      <path class="g" d="M129.42,44.05c-1.52.03-2.91-.25-4.17-.86-1.25-.61-2.25-1.51-3-2.7-.75-1.19-1.14-2.64-1.18-4.36v-.45c-.05-1.72.28-3.19.98-4.41.69-1.22,1.65-2.17,2.88-2.83,1.23-.66,2.6-1.01,4.12-1.04,1.5-.03,2.8.2,3.89.71,1.09.51,1.98,1.21,2.67,2.12.69.91,1.15,1.94,1.39,3.1l-3.86.91c-.1-.63-.3-1.2-.61-1.7-.31-.5-.73-.89-1.28-1.18-.55-.29-1.22-.42-2.03-.4-.81.02-1.53.21-2.17.57-.64.36-1.14.89-1.49,1.59-.36.7-.52,1.54-.5,2.54v.32c.03,1,.23,1.83.62,2.51.38.68.9,1.19,1.56,1.53.65.33,1.38.49,2.19.47,1.21-.03,2.12-.36,2.73-1,.61-.64.99-1.47,1.14-2.49l3.9.84c-.25,1.13-.7,2.16-1.35,3.1-.65.94-1.5,1.68-2.57,2.23-1.07.55-2.35.85-3.86.88Z"/>
      <path class="g" d="M147.18,43.66c-2.05.04-3.75-.36-5.08-1.22-1.33-.86-2.15-2.12-2.47-3.76l3.66-1.03c.16.74.43,1.32.78,1.73s.8.71,1.32.88c.52.17,1.09.25,1.71.23.93-.02,1.62-.2,2.05-.54.44-.34.65-.75.64-1.24-.01-.49-.23-.86-.66-1.11-.43-.26-1.11-.46-2.05-.61l-.89-.14c-1.11-.19-2.12-.46-3.04-.81-.92-.35-1.66-.85-2.23-1.49-.56-.64-.86-1.49-.88-2.52-.03-1.57.51-2.78,1.64-3.64,1.13-.86,2.62-1.31,4.48-1.35,1.76-.04,3.23.32,4.41,1.08,1.18.76,1.97,1.77,2.35,3.03l-3.69,1.22c-.19-.8-.54-1.36-1.07-1.69-.53-.33-1.17-.48-1.93-.47s-1.34.16-1.74.44c-.4.27-.59.64-.58,1.11.01.51.23.88.66,1.11.43.24,1,.41,1.73.52l.89.14c1.19.19,2.27.44,3.24.77.97.33,1.74.81,2.32,1.44.58.63.88,1.5.9,2.6.04,1.65-.53,2.94-1.71,3.87-1.18.93-2.77,1.41-4.78,1.46Z"/>
      <path class="g" d="M189.42,42.29l-.49-22.24,4.19-.09.49,22.24-4.19.09Z"/>
      <path class="g" d="M197.93,42.1l-.49-22.24,4-.09.49,22.24-4,.09Z"/>
      <path class="g" d="M206.38,41.92l-.49-22.24,4-.09.49,22.24-4,.09Z"/>
      <path class="g" d="M220.84,41.86c-1.23.03-2.31-.23-3.24-.77-.93-.54-1.67-1.3-2.2-2.29-.53-.98-.81-2.12-.84-3.41l-.21-9.4,4-.09.2,9.08c.03,1.19.34,2.07.93,2.65.6.58,1.43.86,2.51.83,1.23-.03,2.17-.45,2.83-1.28.66-.83.97-1.98.94-3.44l-.17-8,4-.09.34,15.76-3.94.09-.04-2.06h-.57c-.24.55-.71,1.08-1.39,1.6-.69.52-1.74.8-3.16.83Z"/>
      <path class="g" d="M240.95,41.61c-2.05.04-3.75-.36-5.08-1.22-1.33-.86-2.16-2.11-2.47-3.76l3.67-1.03c.16.74.43,1.32.78,1.73.36.42.8.71,1.32.88.52.17,1.09.25,1.71.23.93-.02,1.62-.2,2.05-.54.44-.34.65-.75.64-1.24-.01-.49-.23-.86-.66-1.11s-1.11-.46-2.05-.61l-.89-.14c-1.11-.19-2.12-.46-3.04-.81-.92-.35-1.66-.85-2.23-1.49-.56-.64-.86-1.49-.88-2.52-.03-1.57.51-2.78,1.64-3.64,1.13-.86,2.62-1.31,4.48-1.35,1.76-.04,3.23.32,4.41,1.08,1.18.76,1.97,1.77,2.35,3.03l-3.69,1.22c-.19-.8-.54-1.36-1.07-1.69-.53-.33-1.17-.48-1.93-.47s-1.34.16-1.74.44c-.4.27-.59.64-.58,1.11.01.51.23.88.66,1.11.43.23,1,.41,1.73.52l.89.14c1.19.19,2.27.44,3.24.77.97.33,1.74.81,2.32,1.44.58.63.88,1.5.9,2.6.04,1.65-.53,2.94-1.71,3.87-1.18.93-2.77,1.41-4.78,1.46Z"/>
      <path class="g" d="M256.76,40.82c-1.04.02-1.89-.28-2.55-.91-.66-.63-1-1.49-1.03-2.57l-.19-8.9-3.94.09-.07-3.3,3.94-.09-.11-4.89,4-.09.11,4.89,4.32-.09.07,3.3-4.32.09.18,8.2c.01.64.32.95.91.93l3.05-.07.07,3.31-4.45.1Z"/>
      <path class="g" d="M265.21,40.63l-.34-15.76,3.94-.09.04,1.78h.57c.22-.65.6-1.13,1.13-1.44.53-.31,1.16-.47,1.88-.48l1.91-.04.08,3.56-1.97.04c-1.02.02-1.85.31-2.49.86-.65.56-.96,1.39-.93,2.52l.2,8.96-4,.09Z"/>
      <path class="g" d="M282.31,40.71c-1.12.02-2.13-.15-3.03-.52-.9-.37-1.61-.93-2.15-1.67-.54-.74-.81-1.65-.84-2.73-.02-1.08.22-1.99.72-2.73.5-.74,1.21-1.31,2.12-1.7.91-.39,1.96-.6,3.15-.62l4.32-.09-.02-.89c-.02-.74-.26-1.34-.74-1.81-.48-.47-1.22-.69-2.24-.67-1,.02-1.73.27-2.21.73-.48.47-.78,1.06-.91,1.78l-3.71-1.16c.24-.81.63-1.56,1.17-2.23.55-.68,1.29-1.24,2.22-1.67.93-.43,2.08-.67,3.43-.69,2.08-.05,3.73.44,4.96,1.45,1.23,1.01,1.87,2.5,1.91,4.47l.13,5.88c.01.64.32.95.91.93l1.27-.03.07,3.3-2.67.06c-.78.02-1.43-.16-1.95-.53s-.78-.87-.8-1.51v-.03s-.6.01-.6.01c-.08.26-.26.59-.55,1.01-.29.42-.75.79-1.37,1.12-.63.33-1.49.51-2.59.54ZM282.94,37.45c1.12-.02,2.03-.36,2.73-1,.7-.64,1.03-1.48,1.01-2.52v-.32s-4.04.09-4.04.09c-.74.02-1.32.19-1.74.51-.42.33-.62.78-.61,1.35s.25,1.03.7,1.38c.45.35,1.1.52,1.95.5Z"/>
      <path class="g" d="M300.67,39.86c-1.04.02-1.89-.28-2.55-.91-.66-.63-1-1.49-1.03-2.57l-.19-8.9-3.94.09-.07-3.3,3.94-.09-.11-4.89,4-.09.11,4.89,4.32-.09.07,3.3-4.32.09.18,8.2c.01.64.32.95.91.93l3.05-.07.07,3.3-4.45.1Z"/>
      <path class="g" d="M310.73,22.03c-.72.02-1.33-.2-1.84-.66-.51-.46-.77-1.06-.79-1.83s.22-1.38.71-1.86c.49-.48,1.09-.72,1.81-.74.74-.02,1.36.2,1.86.66.5.46.75,1.06.77,1.83s-.21,1.38-.69,1.86c-.48.48-1.09.72-1.83.74ZM309.12,39.68l-.34-15.76,4-.09.34,15.76-4,.09Z"/>
      <path class="g" d="M325.07,39.77c-1.57.03-2.98-.25-4.25-.86-1.26-.61-2.27-1.51-3.02-2.7-.75-1.19-1.14-2.63-1.17-4.33v-.51c-.05-1.7.28-3.15.97-4.38.69-1.22,1.66-2.17,2.89-2.83,1.24-.66,2.64-1.01,4.2-1.04s2.98.25,4.25.86c1.26.61,2.27,1.51,3.01,2.7.75,1.19,1.14,2.63,1.18,4.33v.51c.05,1.69-.28,3.15-.97,4.38-.69,1.22-1.66,2.17-2.89,2.83-1.24.66-2.64,1.01-4.21,1.05ZM324.99,36.21c1.23-.03,2.24-.44,3.02-1.26.79-.81,1.17-1.96,1.13-3.44v-.32c-.04-1.48-.46-2.61-1.27-3.39-.81-.78-1.84-1.15-3.09-1.12-1.23.03-2.24.45-3.02,1.26-.79.81-1.16,1.96-1.13,3.44v.32c.04,1.48.47,2.61,1.29,3.39.82.78,1.85,1.15,3.08,1.12Z"/>
      <path class="g" d="M337.01,39.07l-.34-15.76,3.94-.09.04,2.06h.57c.24-.57.71-1.1,1.39-1.62.69-.51,1.74-.78,3.16-.82,1.23-.03,2.31.23,3.24.77.93.54,1.67,1.3,2.2,2.27.53.97.81,2.12.84,3.43l.21,9.4-4,.09-.2-9.09c-.03-1.19-.34-2.07-.93-2.65-.6-.58-1.43-.86-2.51-.83-1.23.03-2.17.46-2.83,1.29-.66.83-.97,1.98-.94,3.44l.17,8-4,.09Z"/>
    </g>
    <path class="e" d="M187.59,35.73l-9.07-.13c-1.85-.03-3.53,1.06-4.28,2.75l-3.65,8.31c-.32.72-1.36.66-1.6-.09l-2.68-8.67c-.55-1.77-2.1-3.03-3.94-3.22l-9.03-.9c-.79-.08-1.05-1.09-.41-1.55l7.41-5.23c1.51-1.07,2.24-2.93,1.84-4.74l-1.93-8.87c-.17-.77.71-1.34,1.34-.86l7.27,5.43c1.48,1.11,3.48,1.22,5.08.29l7.83-4.58c.68-.4,1.49.26,1.24,1.01l-2.92,8.59c-.6,1.75-.09,3.69,1.3,4.92l6.77,6.04c.59.53.21,1.5-.58,1.49Z"/>
    <path class="g" d="M180.4,32.85h-4.44c-1.39,0-2.66.82-3.21,2.1l-1.84,4.22c-.24.56-1.05.5-1.22-.08l-1.22-4.21c-.4-1.39-1.61-2.39-3.05-2.52l-4.26-.38c-.6-.05-.81-.82-.33-1.17l3.74-2.74c1.1-.81,1.63-2.18,1.37-3.51l-.91-4.55c-.12-.59.55-1.01,1.03-.64l3.4,2.6c1.15.88,2.72.96,3.95.21l3.74-2.28c.52-.32,1.15.19.95.76l-1.49,4.36c-.45,1.32-.08,2.78.95,3.72l3.28,2.99c.44.4.15,1.13-.44,1.13Z"/>
  </g>
</svg>