<?xml version="1.0" encoding="UTF-8"?><svg id="b" xmlns="http://www.w3.org/2000/svg" width="298.96" height="127.2" xmlns:xlink="http://www.w3.org/1999/xlink" viewBox="0 0 298.96 127.2"><defs><clipPath id="d"><rect x="20.96" y="3.59" width="278" height="109.45" rx="4.82" ry="4.82" fill="#bfbebe"/></clipPath><linearGradient id="e" x1="161.54" y1="4.04" x2="161.54" y2="26.82" gradientUnits="userSpaceOnUse"><stop offset=".09" stop-color="#4b82c3"/><stop offset=".78" stop-color="#4462a8"/><stop offset=".83" stop-color="#4564a9"/><stop offset="1" stop-color="#617296"/></linearGradient><linearGradient id="f" x1="223.54" y1="93.04" x2="223.54" y2="74.54" gradientUnits="userSpaceOnUse"><stop offset=".87" stop-color="#bfbebe"/><stop offset="1" stop-color="#fbfbfb"/><stop offset="1" stop-color="#fff"/></linearGradient></defs><g id="c"><rect x="20.96" y="3.59" width="278" height="109.45" rx="4.82" ry="4.82" fill="#bfbebe"/><g clip-path="url(#d)"><rect x="11.04" y="-5.96" width="294" height="13" fill="#f1f2f2"/><rect x="21.04" y="4.04" width="281" height="22.78" fill="url(#e)"/></g><rect x="276.04" y="7.04" width="16.5" height="16.5" rx="2.95" ry="2.95" fill="#bfbebe" stroke="#231f20" stroke-miterlimit="10"/><image width="924" height="366" transform="translate(0 2.88) scale(.24)" xlink:href="Asset 10-1.png"/><polygon points="287.28 20.75 283.92 17.92 280.41 20.18 281.84 16.17 278.48 13.34 282.73 13.69 284.15 9.67 285.35 13.9 289.6 14.25 286.09 16.52 287.28 20.75" fill="#231f20"/><path d="M287.28,20.12c-.53-.45-1.07-.9-1.6-1.34l-1.18-.99c-.1-.09-.45-.48-.58-.49-.11,0-.38.24-.47.29l-1.2.77c-.62.4-1.23.79-1.85,1.19v1.25c.48-1.34.95-2.68,1.43-4.01.05-.14.09-1.17,0-1.25-1.12-.94-2.24-1.89-3.36-2.83v1.25c1.26.1,2.52.21,3.78.31.47.04.45.1.6-.34l.74-2.09c.04-.1.45-1.53.54-1.53.06,0,.31,1.06.34,1.18l.65,2.3c.05.18.08.51.19.66.08.11.01.05.17.1.28.08.63.05.92.08l1.38.11,1.8.15v-1.25c-1.17.75-2.34,1.51-3.51,2.26-.09.06-.04,1.12,0,1.25.4,1.41.8,2.82,1.2,4.23-.11-.38.11-.86,0-1.25-.4-1.41-.8-2.82-1.2-4.23v1.25c1.17-.75,2.34-1.51,3.51-2.26.08-.05-.03-1.25,0-1.25-1.26-.1-2.52-.21-3.78-.31-.46-.04-.45.02-.58-.41l-.6-2.11-.28-1c-.03-.1-.1-.63-.19-.69-.06-.04,0-.03-.07.11-.12.27-.2.57-.3.85l-.8,2.26c-.06.18-.11.52-.24.66-.09.11,0,.05-.18.07-.28.04-.63-.05-.92-.08l-1.38-.11-1.8-.15c.06,0-.09,1.17,0,1.25,1.12.94,2.24,1.89,3.36,2.83v-1.25c-.48,1.34-.95,2.68-1.43,4.01-.06.17,0,.45,0,.62,0,.07.06.59,0,.62.6-.39,1.2-.77,1.8-1.16l1.24-.8c.09-.06.36-.3.47-.29.14,0,.49.41.58.49l1.13.95c.55.46,1.09.92,1.64,1.38-.05-.04,0-.54,0-.62,0-.09.07-.56,0-.62Z" fill="#231f20"/><rect x="178.5" y="74.73" width="91" height="18.81" fill="#231f20" stroke="#231f20" stroke-miterlimit="10"/><rect x="178.04" y="74.54" width="91" height="18.5" fill="url(#f)" stroke="#231f20" stroke-miterlimit="10" stroke-width=".75"/><image width="375" height="348" transform="translate(180.48 42.72) scale(.24)" xlink:href="Asset 10-2.png"/></g></svg>