<?xml version="1.0" encoding="UTF-8"?>
<svg id="b" data-name="Layer_2" xmlns="http://www.w3.org/2000/svg" width="673.43" height="323" viewBox="0 0 673.43 323">
  <g id="c" data-name="Ñëîé_1">
    <g>
      <path d="M670.32,217.2c.38-13.62.77-27.24,1.22-40.86.04-1.24.34-2.5.7-3.69,3.55-11.69-1.87-22.52-2.64-33.8-.03-.37-.47-.69-.56-1.08-1.11-4.41-2.79-8.76-3.17-13.25-.8-9.37-1.08-18.81-1.25-28.24-.16-8.4-.51-16.68-3.01-24.77-1.18-3.83-.64-7.76,1.2-11.56,1.21-2.5,1.99-5.48,2.22-8.31.51-6.65-4.72-11.58-4.94-18.12-.01-.44-.73-.97-1.22-1.26-2.82-1.69-5.64-3.38-8.51-4.95-1.33-.72-3.19-.77-4.08-1.85-2.1-2.54-4.57-3.46-7.55-3.89-3.48-.51-5.91-2.43-6.46-6.79-.2-1.56-1.64-3.85-2.86-4.17-5.47-1.43-10.98-3-16.24,1.5-2.63,2.26-5.88,4.38-9.08,4.93-4.4.75-8.07,2.71-11.23,5.64-2.57,2.38-5.1,3.17-8.34,3.1-4.36-.09-8.76.25-13.11.73-2.97.33-5.91,1.16-8.84,1.85-2.96.7-6.79.48-8.66,2.46-3.84,4.07-8.42,5.46-13.08,7.31v203.71c3.57.67,6.97,2.06,10.04,4.99,1.05,1,3.5,1.59,4.59.94,5.95-3.61,12.33-1.02,18.45-1.88,3.63-.51,7.6.53,11.22,1.65,2.5.77,4.71,1.27,7.22.38,2.79-1,5.33-.59,8.25.65,3.19,1.36,7.01,1.06,10.56,1.17,1.87.06,3.96-1.32,5.59-.76,6.11,2.09,12.25,1.21,18.43,1.47,9.3.38,18.54,2.33,27.34,5.98,2.5,1.04,3.75-.15,5.26-2.17,2.66-3.58,2.55-7.79,2.89-11.9.6-7.34,3.64-14.7-.15-22.05-.42-.82-.22-2.07-.18-3.11Z" fill="#00a0e0" fill-rule="evenodd"/>
      <path d="M608.82,80.08c0-2.33-1.08-3.48-3.18-3.48h-41.32l6.12-36.26h52.57c6.19,0,11.15,2.02,14.91,6.05,3.75,4.03,5.63,9.44,5.63,16.24v70.63c0,5.73-1.56,10.58-4.66,14.5-3.1,3.95-7.97,5.91-14.65,5.91h-18.83v30.33h-29.33v-51.54c0-3.05,1.06-5.64,3.17-7.8,2.12-2.14,4.48-3.21,7.09-3.21h19.07c1.63,0,2.6-.28,2.93-.83.32-.53.49-1.51.49-2.93v-37.61ZM572.14,217.03c0,5.74,1.88,10.6,5.63,14.63,3.75,4.02,8.23,6.03,13.44,6.03s9.7-2.01,13.45-6.03c3.75-4.03,5.62-8.89,5.62-14.63s-1.87-10.65-5.62-14.77c-3.75-4.12-8.23-6.18-13.45-6.18s-9.7,2.06-13.44,6.18c-3.74,4.11-5.63,9.03-5.63,14.77Z" fill="#f0f1ef"/>
    </g>
    <g>
      <path d="M199.26,30.26c-1.67,4.64-2.57,9.02-1.8,13.47.5,2.88,1.01,5.76,1.37,8.66.2,1.55.04,3.14.16,4.7.38,4.76,1.77,9.3,3.63,13.74,1.07,2.54,2.11,5.1,2.83,7.73.69,2.53.93,5.16-.46,7.72-1.24,2.28-1.66,4.6-1.11,7.02.1.44.19.95.01,1.35-1.52,3.38.42,6.47.65,9.69.03.43.25.91.55,1.25,3.34,3.67,3.11,7.99,2.78,12.35-.05.66-.14,1.48.24,1.97,2.61,3.31,2.08,7.09,2.05,10.81-.01,1.22.06,2.53.56,3.64,1.51,3.38.89,6.82.71,10.36-.29,5.74-2.21,11.5-.79,17.24.26,1.05-.14,2.27-.42,3.38-.34,1.4-1.4,2.29-3.21,2.21-4.14-.2-7.69,1.33-11.41,2.68-5.69,2.06-11.52,3.88-17.42,5.43-2.56.68-5.5.15-8.13.7-4.35.91-8.69,1.92-11.9,5.11-.97.96-3.12,1.34-4.79,1.55-2.82.36-5.7.47-8.54.49-.99,0-2.01-.49-2.94-.88-2.54-1.06-3.15-1.08-4.97.67-1.8,1.73-3.94,2.81-6.5,3.61-3.21,1.01-6.47,2.05-9.03,4.21-.7.59-1.96,1.02-2.95,1.04-3.14.06-6.3.07-9.38-.26-1.12-.12-2.27-1.11-2.98-1.96-2.38-2.88-3.42-6.27-4.38-9.66-.43-1.53-.83-3.07-1.27-4.59-.95-3.27-1.24-6.59-1.49-9.99-.64-8.69-.91-17.49-3.41-25.97-.1-.33-.15-.66-.2-1-1.45-10.34-3.25-20.65-4.23-31.03-.65-6.85-.13-13.82-.13-20.73,0-8.97.46-17.98-1.24-26.83-.49-2.56-1.37-5.07-1.62-7.65-.37-3.83-.43-7.69-.45-11.55-.02-2.69,1.69-4.28,4.88-4.83.94-.16,2.07-.43,2.84-.16,7.46,2.6,11.59-1.42,14.62-6,2.96-4.46,7.67-6.63,12.6-8.74,2.84-1.21,5.91-2.07,8.93-2.92,1.11-.31,2.73-.57,3.54-.14,2.22,1.18,4.68.96,7.09,1.12,4.59.32,9.18.67,13.78.9,7.39.37,14.8-.09,22.13-1.24,4.32-.67,8.34.55,12.54.53,2.01-.01,3.49,1.02,3.75,2.94.12.88.89,1.7.9,2.57.02,2.37,1.17,4.08,3.99,5.27Z" fill="#e4d26e" fill-rule="evenodd"/>
      <path d="M121.3,33.26l16.55-4.07,59.06,125.67,6.7-1.65c1.2.15,1.84.41,1.92.77.09.36-.35.89-1.35,1.58l-44.87,11.02c-.5.12-.92.12-1.27-.02-.35-.13-.57-.39-.65-.75-.09-.36-.02-.69.23-.97.24-.29.62-.49,1.12-.61l7.16-1.76-10.19-24.82-27.34,6.72.5,15.36c.1.81.25,1.64.46,2.49.65,2.66,1.96,4.47,3.94,5.43,1.97.96,4.44,1.23,7.4.83l2.5-.14c.45.15.73.4.82.77.09.36-.02.7-.31.99-.3.3-.7.51-1.19.63l-25.49,6.26c-.5.12-.95.13-1.35,0-.4-.12-.64-.37-.73-.73-.09-.36-.02-.7.22-1.02l1.7-.8c2.81-.95,4.86-2.28,6.12-4.01,1.86-2.7,2.69-6.62,2.47-11.76l-4.12-125.4ZM125.86,68.02l2.42,73.87,26.17-6.43-28.59-67.44Z" fill="#c6464d"/>
    </g>
    <g>
      <path d="M325.33,26.64c.32-1.71.59-3.37.94-5,.53-2.51,1.79-3.87,4.34-3.84,2.3.03,3.74-.79,4.99-2.62,1.61-2.37,4.06-2.92,6.5-1.71,2.77,1.36,5.24.4,7.77-.34,2.23-.65,4.44-1.4,6.6-2.25.9-.36,1.65-1.09,2.44-1.69,1.48-1.12,2.92-1.82,4.95-1.24,1.16.33,2.57-.18,3.85-.39.87-.14,1.74-.64,2.57-.56,2.88.29,5.73.17,8.61.13,3.62-.04,7.25,1.07,10.88,1.65,1.76.28,2.81,1.04,2.91,3.02.15,2.86,2.04,4.84,4.18,6.72-1.65,2.74-.71,4.27,1.67,6.16,2.44,1.94,3.99,5.01,5.87,7.63.29.41.4,1.1.3,1.61-.82,4.4.45,8.85-.29,13.23-.12.71-.8,1.52-1.45,1.9-1.23.72-2.62,1.17-4.25,1.87.61,1.7,1.04,3.3,1.74,4.77,1.55,3.24.98,6.15-1.31,8.7-1.48,1.65-2.14,3.44-2.62,5.62-.69,3.12-1.98,6.16-3.41,9.05-.7,1.42-1.12,2.55-.6,4.07.59,1.72.71,3.37-.45,5.09-.7,1.03-.7,2.53-1.1,4.17-.47.21-1.24.56-2.16.99-1.03,9.42-3.44,18.78-2.6,28.7-.42.1-1.03.28-1.65.37-.66.09-1.33.08-2.27.12-.51,2.58-2.49,2.72-4.62,2.59-3.56-.22-7.12-.54-10.69-.59-1.87-.03-3.74.44-5.62.61-1.52.14-3.05.25-4.58.24-3.02-.02-6.03-.16-9.05-.18-.52,0-1.07.29-1.57.53-2.37,1.2-4.73,2.43-7.1,3.64-.29.15-.63.29-.95.31-3.67.26-7.34.71-11.01.65-2.34-.04-4.37.2-6.37,1.48-3.91,2.52-8.06.74-9.24-3.86-.28-1.08-.38-2.21-.73-3.27-.23-.7-.62-1.63-1.19-1.88-2.25-.98-2.6-2.87-2.83-4.93-.23-2.01-.67-3.87-2.03-5.57-.65-.82-.74-2.35-.59-3.5.59-4.33.02-8.64,0-12.96,0-.77-.15-1.71.21-2.3,1.35-2.18,1-4.54,1.05-6.87.05-2.78-.35-5.61,1.06-8.23.25-.46.29-1.1.25-1.64-.37-4.75-.78-9.51-1.18-14.26-.03-.34-.18-.72-.06-.99,1.23-2.96-.51-5.38-1.38-7.97-.32-.93-.65-1.92-.66-2.89-.03-2.87.09-5.75.18-8.62,0-.32.21-.63.33-.94.85-2.3,1.73-4.59,2.53-6.91.53-1.53,1.39-2.83,3.13-2.27,2.88.92,5.23-.71,7.67-1.46,2.74-.85,5.24-2.47,8.1-3.87Z" fill="#5d6e80" fill-rule="evenodd"/>
      <path d="M352.37,112.26c-5.55,0-10.75-.9-15.58-2.7-4.84-1.8-9.06-4.41-12.65-7.83-3.52-3.35-6.3-7.49-8.32-12.42-2.03-4.93-3.04-10.36-3.04-16.27s1.02-11.32,3.07-16.32c2.04-5,4.92-9.34,8.62-13.01,3.63-3.59,7.98-6.38,13.07-8.36,5.09-1.97,10.53-2.96,16.33-2.96,4.2,0,8.02.52,11.47,1.55,3.45,1.03,6.36,2.19,8.75,3.47l3.31-2.94h4.64l.48,27.64h-4.69c-2.67-8.45-5.87-14.65-9.59-18.61-3.73-3.95-8.28-5.94-13.65-5.94-6.68,0-11.76,2.95-15.24,8.85-3.48,5.9-5.22,14.17-5.22,24.83,0,6.02.59,11.16,1.78,15.42,1.19,4.26,2.75,7.69,4.67,10.29,2.06,2.71,4.5,4.7,7.3,5.96,2.81,1.27,5.92,1.9,9.33,1.9,4.98,0,9.41-1.35,13.3-4.06,3.89-2.7,7.43-6.79,10.63-12.27l4.59,2.77c-1.53,3.13-3.27,5.93-5.23,8.41-1.96,2.47-4.21,4.6-6.78,6.37-2.81,1.96-5.92,3.49-9.31,4.59-3.4,1.1-7.41,1.66-12.03,1.66Z" fill="#9fbfd2"/>
    </g>
    <g>
      <path d="M398.36,251.05c0-2.8-.85-4.96-3.47-6.91-2.06-1.54-2.38-4.1-.78-6.32,1.38-1.91.78-3.36-.03-5.16-2.15-4.81-4.09-9.56-8.35-13.75-1.92-1.88-.67-5.2-3.76-7.1-.4-.24-.27-1.07-.07-1.58,1.81-4.74.7-9.2-1.45-13.5-1.57-3.13-1.28-6.63-2.5-9.66-1.85-4.59.12-8.86.82-13.28.27-1.73,1.54-2.85,3.65-3.74,3.73-1.58,7.38-3.27,11.14-4.83.82-.34,1.94-.46,2.89-.44,9,.16,17.98.42,26.99.54,1.51.02,3.15-.34,4.61-.76,5.66-1.64,10.95-3.43,17.44-2.26,3.39.61,7.93-.75,11.78-1.66,4.97-1.18,9.79-1.59,14.94-1.58,5.59.01,11.3-.98,16.96-1.52,3.41-.33,6.82-.93,10.09.19.96.33,2.41.27,3.55.08,4.2-.71,7.43.46,10.63,1.85,3.01,1.31,4.76,3.08,4.64,5.74-.15,3.21-.06,6.41-.1,9.62-.04,3.67.21,7.05,4.44,9.81,4.19,2.72,4.08,6.58,1.73,10.46-1.76,2.91-3.62,5.81-5.18,8.76-.77,1.46-1.16,3.04-1.38,4.57-.51,3.63-1.39,7.31-1.08,10.87.91,10.56,1.53,21.19,3.76,31.55,1.86,8.64,3.32,17.27,3.97,26.03.19,2.62-2.37,4.51-6.67,4.59-6.07.12-12.06,0-17.99,1.71-.95.28-2.27-.3-3.45-.35-2.17-.09-4.36-.19-6.54-.07-2.79.15-5.61.71-8.39.74-6.26.06-12.36.92-18.58,1.66-9.74,1.15-19.68,1.61-29.49.76-5.3-.46-10.83-.09-16.25-.15-5.67-.07-8.51-2.75-7.06-6.59.16-.41.2-.89.54-1.23,3.87-3.88,4.24-8.08,4.68-12.51.85-8.53-3.84-13.19-16.67-14.57Z" fill="#7f838d" fill-rule="evenodd"/>
      <path d="M482.59,180.56l-5.68.89-6.34,1.15-7.2,1.59c-1.6.25-2.87.61-3.81,1.06-.94.46-1.67,1.3-2.21,2.52l-3.33,10.58-.85,6.17.14,3.54c.05,1.23,1.02,1.7,2.91,1.4l9.62-1.51c6.28-.98,10.49-1.02,12.66-.1,2.16.91,4.42,3.39,6.79,7.43.07,1.75-4.7,3.83-14.28,6.26l-15.51,2.89c-1.31.2-2.17.76-2.58,1.64l-.64,6.13-.21,11.49.91,6.2c.07,1.64,1.76,2.2,5.08,1.68,2.45-.38,10.28-2.69,23.48-6.93,1.71-.88,3.5-1.47,5.38-1.76,3.03-.48,5.56,0,7.58,1.44,2.01,1.44,3.07,3.23,3.15,5.39.08,2.25-1.16,4.21-3.73,5.84-6.05,2.81-12.74,5.4-20.05,7.78-7.32,2.38-13.24,3.93-17.76,4.64-4.67.73-8.84.92-12.52.57-3.68-.35-6.88-1.6-9.61-3.76-2.69-1.12-4.87-4.29-6.54-9.5l-1.87-8.37-1.06-10.05c-.27-6.97.1-14.1,1.15-21.38,1.03-7.28,2.85-13.44,5.44-18.49-.04-.92-.43-1.53-1.18-1.82-2.39-.97-4.88-2.7-7.47-5.18-2.6-2.78-3.94-5.15-4.02-7.1l.58-1.95c.81-1.68,4.56-3.55,11.23-5.63,3.04-.89,7.19-1.9,12.43-3.03,5.23-1.13,11.06-2.19,17.48-3.2,3.94-.62,6.12-.96,6.56-1.03.88-.14,2.8.24,5.77,1.16l6.26,2.5,3.37,1.85,2.49,1.51c1.06,1.1,1.92,2.29,2.56,3.56.02.52-.92,1.08-2.79,1.68l-1.76.27Z" fill="#e9ecee"/>
    </g>
    <g>
      <path d="M62.83,155.21c15.11-5.01,30.66-8.7,45.57-14.4,1.78-.68,3.56-1.36,5.34-2.04-1.21-1.66-1.52-3.46-1.5-5.48.03-2.63-.12-5.26-.38-7.88-.4-4.13-1.09-8.24-1.41-12.37-.45-5.8-.63-11.62-1-17.42-.27-4.14-.4-8.31-1.04-12.41-1.49-9.61-2.41-19.24-2.65-28.93-.02-.69.08-1.43-.13-2.07-2.78-8.56-.64-17.59-3.34-26.26-1.5-4.82-.92-10.17-1.14-15.28-.19-4.47-.58-4.73-5.74-4.97-5.52-.26-11.02,1.28-16.55.06-1.77-.39-3.64-.42-5.46-.62-3.62-.41-7.25-.76-10.85-1.31-.79-.12-1.58-.87-2.13-1.5C58.44.04,56.06-.15,52.99.16c-4.08.4-8.28.09-12.41-.15-2.59-.15-9.27,1.6-10.93,3.42-4.79,5.24-9.58,10.48-14.17,15.85-3.15,3.68-4.47,8.25-5.04,12.64-1.14,8.92-1.4,17.93-2.04,26.91-.27,3.83-.78,7.65-.83,11.48-.03,2.7-1.47,5.19-1.57,7.63-.2,4.81-2.04,9.19-3.04,13.77-.2.92-.56,2.1-.12,2.78,1.58,2.42.42,4.55-.39,6.79-.86,2.36-2.17,4.72-2.3,7.12-.33,6.08-.01,12.19-.13,18.29-.05,2.57,1.25,4.28,3.53,5.44,7.06,3.6,13.14,8.79,21.31,10.62.85.19,1.78.72,2.29,1.34,1.35,1.65,2.88,1.15,4.17.54,1.47,1.64,2.34,3.64,3.65,3.9,6.31,1.29,12.27,3.51,18.45,5.1,3.05.78,6.24,1.36,9.41,1.57Z" fill="#2c3a2b" fill-rule="evenodd"/>
      <path d="M30.89,134.64l-5.94-112.43,70.46,4.89,1.21,22.88-43.56-3.02,1.19,22.41,38.94,2.7,1.2,22.72-38.94-2.7,2.35,44.42-26.9-1.86Z" fill="#f0f1ef"/>
    </g>
    <g>
      <path d="M188.92,221.91c.05-1.26-.23-2.54-.35-3.81-.11-1.13-.61-2.43-.25-3.35,1.3-3.33-.49-5.38-2.25-7.55-1.8-2.21-.26-5.83-2.79-7.76-.54-.41-1.12-.82-1.53-1.36-.66-.86-1.35-1.75-1.76-2.76-1.25-3.12-2.36-6.32-3.56-9.47-1.83-4.81-1.85-4.75-6.63-4.85-1.83-.04-3.99.21-5.41-.71-3.51-2.29-7.02-1.96-10.75-1.38-1.63.25-3.47.17-5-.43-1.99-.78-3.77-.75-5.8-.29-2.42.54-4.93.73-7.41.8-1.83.05-3.69-.6-5.51-.48-5.62.36-11.24-.73-16.92,1.17-3.07,1.02-6.79-.27-10.22-.46-5.14-.28-10.28-.51-15.43-.73-.65-.03-1.34.08-1.95.32-6.81,2.79-13.59,2.62-20.4-.02-2.56-1-3.73-.55-5.4,1.86-2.09,3.01-4.49,5.55-7.92,6.76-.58.2-1.39.77-1.47,1.28-.43,2.65-2.48,3.46-4.16,4.83-1.95,1.59-3.95,3.16-5.34,5.35-.34,21.39-1.6,42.75-2.34,64.13.21,1.03.42,2.06.63,3.09.03.14.09.27.14.4,3.13,7.36,5.91,14.84,7.51,22.79.47,2.32,1.56,4.5,2.39,6.74.74,1.98,1.5,3.96,2.29,5.92.41,1.03.72,2.18,1.36,3.02,2.98,3.87,5.83,7.71,6.07,13.12.1,2.14,2,2.94,3.4,1.45,1.62-1.72,3.15-1.41,5.07-1.13,2.47.36,5.05.49,7.51.13,5.29-.78,9.14-3.68,10.23-9.98,1.19,0,2.3-.25,3.26.05,3.42,1.08,6.78,2.34,10.17,3.54,1.36.48,2.71,1.01,4.08,1.47,2.37.8,5.39-.16,6.86,3.05.12.25.73.2,1.09.37,2.53,1.18,5.4,1.91,7.5,3.69,2.73,2.31,5.32,2.8,8.46,1.77.87-.28,1.84-.18,2.75-.31,5.17-.72,9.98-2.34,14.06-6.07,1.18-1.08,2.62-2.16,4.08-2.46,2.64-.55,5.39-.52,8.61-.77,1.15-2.54,2.52-5.14,6.12-4.83.67.06,1.52-.87,2.11-1.53,2.34-2.66,4.61-5.41,6.92-8.1.8-.93,1.99-1.64,2.43-2.73.83-2.03,2.09-2.77,4.03-2.66,2.12.12,3.4-1.02,4.23-3.13.6-1.52,1.62-2.85,2.42-4.29.59-1.08,1.4-2.15,1.62-3.34,1.47-7.99,3.43-15.81,3.29-24.16-.2-12.07-.65-24.15-.16-36.22Z" fill="#bd414b" fill-rule="evenodd"/>
      <path d="M83.88,258.39v1.57c0,.31.02.82.07,1.49.05.68.12,1.17.2,1.47.08.3.21.72.39,1.26.18.54.4.94.66,1.18.26.24.58.55.97.89.39.35.84.6,1.37.76.52.16,1.14.29,1.85.42.71.12,1.51.18,2.38.18v18.82h-31.7v-18.82c.88,0,1.67-.08,2.38-.21.72-.14,1.33-.3,1.85-.47.52-.17.98-.47,1.38-.89.41-.42.74-.79,1-1.12.26-.34.48-.85.66-1.55.18-.7.32-1.27.42-1.72.09-.45.17-1.16.22-2.13.05-.96.07-1.73.07-2.31v-37.35h-8.13l-.05-18.5h40.66l15.1,40.2,13.44-40.2h38.18v18.5h-7.16v47.75h7.5v18.82h-39.1v-18.82h5.99v-32.39l-16.65,51.21h-13.68l-20.26-52.36v24.31Z" fill="#f7f3eb"/>
    </g>
    <g>
      <path d="M301.2,78.82c-1.81,2.88-3.69,5.71-5.36,8.68-.83,1.46-1.38,3.11-1.81,4.74-.99,3.88-2.27,7.76-2.66,11.71-1.12,11.7-2.46,23.43-2.56,35.16-.08,9.78-.45,19.48-1.46,29.18-.31,2.89-2.55,4.5-5.77,3.85-4.57-.93-9.02-2.11-13.75-1.28-.76.14-1.65-.72-2.52-.99-1.6-.46-3.22-.96-4.87-1.22-2.12-.33-4.32-.19-6.41-.65-4.68-1.03-9.39-1.16-14.16-1.44-7.48-.45-15-1.69-22.19-4.35-3.88-1.44-8.08-1.99-12.11-3.01-4.23-1.06-5.9-4.5-4.16-8.46.19-.42.3-.93.61-1.24,1.01-1.03,1.82-2.12,2.48-3.29.56-.99,1.02-2.01,1.4-3.08.74-2.07,1.23-4.26,1.75-6.49,2.08-9.19-.62-15.09-9.98-18.86.47-3.05.21-5.56-1.41-8.16-1.29-2.03-1.08-4.9.49-7.04,1.37-1.84,1.15-3.53.86-5.65-.78-5.64-1.42-11.17-3.9-16.49-1.12-2.4.38-5.82-1.6-8.43-.27-.33-.03-1.22.21-1.74,2.16-4.88,2.09-9.95,1.22-15.02-.63-3.7.17-7.47-.23-11.01-.6-5.34,1.6-9.66,2.87-14.39.5-1.83,1.64-2.84,3.36-3.45,3.07-1.08,6.08-2.28,9.15-3.32.67-.24,1.53-.17,2.25.01,6.7,1.75,13.37,3.6,20.08,5.31,1.12.29,2.41.19,3.58-.02,4.52-.79,8.78-1.84,13.42.59,2.44,1.27,6.05.56,9.09.25,3.91-.43,7.58-.02,11.43.89,4.17,1,8.62.9,12.93,1.3,2.62.24,5.27.18,7.52,1.97.67.53,1.75.73,2.65.72,3.26-.05,5.47,1.79,7.63,3.89,2.04,1.95,3.04,4.19,2.49,7.09-.66,3.47-1.14,6.99-1.72,10.5-.66,3.99-1.04,7.74,1.66,11.5,2.66,3.71,1.93,7.91-.5,11.74Z" fill="#816052" fill-rule="evenodd"/>
      <path d="M273.36,147.18c-1.55-2.1-2.31-4.55-2.29-7.37.19-5.03.41-9.67.63-13.97.22-4.29.47-8.48.76-12.62.28-4.13.6-8.35.96-12.65l1.22-14.2c1.24-14.43.05-25.55-3.59-33.33-3.62-7.8-9.17-12.03-16.63-12.67-1.54-.13-3.23-.07-5.05.18-1.82.23-3.7.83-5.63,1.75-1.93.94-3.84,2.28-5.78,4.05-1.92,1.77-3.75,4.12-5.47,7.04.24-2.75.51-5.42.8-7.97.29-2.58.81-4.81,1.59-6.71l-31.11,10.43-.05.56c4.05.35,7.09,1.31,9.14,2.9,2.04,1.58,3.42,4.09,4.12,7.53.7,3.42.9,7.95.56,13.57-.33,5.61-.86,12.64-1.59,21.11-.53,6.19-1.19,12.49-1.97,18.92-.76,6.43-1.64,13.26-2.62,20.53-.46,2.77-1.61,5.18-3.43,7.21-.58.65-1.25,1.2-2.02,1.69-.37,1.07-.83,2.09-1.4,3.08l30.67,2.63.05-.55c-2.46-1.18-4.24-2.79-5.35-4.85-1.11-2.06-1.64-4.49-1.62-7.32.26-7.18.6-14.29,1.07-21.33.45-7.03.99-14.14,1.6-21.27l1.23-14.37c.37-4.27,1.18-8.13,2.42-11.6,1.26-3.43,2.78-6.37,4.58-8.78,1.8-2.41,3.8-4.21,6.05-5.44,2.25-1.22,4.57-1.72,6.98-1.52,2.65.23,4.56,1.67,5.78,4.34,1.2,2.66,1.97,6.33,2.32,10.99.35,4.66.3,10.25-.11,16.73-.41,6.5-.95,13.66-1.62,21.45-.34,3.92-.8,8.6-1.37,14.09-.59,5.47-1.28,11.67-2.11,18.56-.48,2.77-1.41,5.19-2.81,7.26-1.41,2.08-3.54,3.4-6.36,3.96l-.05.55,34.94,3,.05-.55c-3.46-1.26-5.99-2.94-7.52-5.04Z" fill="#f0f1ef"/>
    </g>
    <g>
      <path d="M285.13,166.53c-.69.35-1.34,1.24-1.95,1.19-3.44-.25-6.33,1.46-9.4,2.43-1.96.61-3.32.36-4.54-1.11-1.37-1.65-3-2.12-5.21-1.94-2.64.22-5.41.44-7.49-2.13-.8-.99-2.61-1.92-3.77-1.73-3.04.5-5.97,1.66-8.97,2.48-1.07.29-2.68.86-3.23.38-2.06-1.78-4.25-1.37-6.65-1.35-7.31.05-14.59-1.99-21.95-.4-.37.08-.81.05-1.17-.08-3.06-1.01-5.94-1.04-8.49,1.27-.26.24-.74.24-1.12.33-2.89.66-5.78,1.32-8.56,1.95.17,4.61.33,8.86.48,13.12.08,2.21.15,4.42.18,6.62.04,2.69.04,5.38.05,8.07.02,3.36-.45,6.82.22,10.06.61,2.95,2.44,5.66,3.75,8.47.65,1.4,1.09,2.99,2.08,4.11,1.33,1.53,1.72,3.14,1.64,5.02-.14,3.47-.17,6.95-.42,10.41-.06.8-.84,1.54-1.24,2.34-1.55,3.09-3.48,6.01-3.94,9.57-.11.84-.41,1.7-.82,2.49.51,10.24.09,20.5-.33,30.76,3.31-2.01,6.93-2.66,11.08-.89.84.36,1.66.88,2.54,1.06,1.08.21,2.33.44,3.32.12,4.04-1.3,8.64-.88,12.14-3.85.33-.28,1.02-.12,1.54-.2,1.69-.24,3.39-.42,5.05-.74,1.93-.38,3.8-1.08,5.59.55.41.38,1.5.29,2.18.09,2.88-.82,5.71-1.83,8.6-2.64,1.87-.52,3.92-1.23,4.98,1.41.16.38.81.78,1.25.79,2.2.08,4.45.31,6.6-.03,4.52-.73,8.99-1.73,13.46-2.72,3.62-.81,4.71-2.26,5.04-6.2.02-.25.15-.49.31-1.03.52-.17.88-.34,1.25-.41,2.84-.46,4.92-1.38,4.89-4.9-.02-2.4,1.89-4.18,4.01-4.91.27-.09.55-.17.83-.26,1.2-29.9,2.59-59.8,3.03-89.72-2.61.2-4.7,1.05-6.86,2.14Z" fill="#3c83bf" fill-rule="evenodd"/>
      <path d="M274.2,222.94c-.45,6.46-2.23,12.24-5.33,17.34-3.1,5.1-7.16,8.98-12.16,11.65-5,2.67-10.42,3.82-16.26,3.42-5.84-.39-11.05-2.26-15.64-5.57-4.59-3.32-8.07-7.72-10.44-13.18-2.37-5.47-3.33-11.43-2.89-17.9.49-7.1,2.29-13.22,5.4-18.37,3.11-5.13,7.11-8.91,12.01-11.36,4.89-2.43,10.37-3.44,16.44-3.03,5.96.4,11.21,2.14,15.72,5.21,4.51,3.07,7.95,7.36,10.33,12.86,2.37,5.51,3.31,11.82,2.82,18.92ZM241.44,241c1,.07,1.9-.05,2.71-.36.82-.3,1.52-.76,2.11-1.35.59-.6,1.12-1.31,1.59-2.14.47-.82.85-1.73,1.15-2.72.3-.99.56-2.02.79-3.08.23-1.06.4-2.14.51-3.22.11-1.09.22-2.15.32-3.2.1-1.04.17-2.03.21-2.97.04-.55.07-.97.09-1.24.02-.3.05-.79.1-1.44.04-.99.12-2.04.22-3.14.1-1.1.13-2.23.11-3.41-.04-1.18-.1-2.32-.19-3.43-.09-1.11-.3-2.18-.64-3.19-.34-1.02-.76-1.91-1.25-2.7s-1.17-1.41-2.04-1.9c-.86-.49-1.86-.77-2.98-.84-.99-.07-1.9.04-2.73.32-.82.28-1.53.7-2.1,1.24-.57.56-1.1,1.22-1.58,1.97-.47.75-.85,1.58-1.13,2.49-.28.91-.54,1.86-.77,2.85-.24,1-.4,2-.5,3-.1,1-.2,1.98-.3,2.95-.11.96-.16,1.86-.17,2.72-.05.65-.08,1.14-.1,1.44-.02.27-.05.69-.09,1.24-.03.82-.09,1.69-.18,2.6-.09.91-.14,1.85-.14,2.83,0,.98,0,1.96,0,2.92.01.96.08,1.93.21,2.88.13.95.29,1.84.49,2.69.2.84.47,1.63.83,2.36.36.73.78,1.37,1.27,1.91.49.54,1.09.99,1.81,1.32.72.34,1.51.54,2.38.6Z" fill="#c4d8e8"/>
    </g>
    <g>
      <path d="M492.82,135.02c-.29-13.53-1.5-26.87-2.88-40.27-1.95-19.05-1.48-39.16-4.02-58.27-1.28-2.97-2.61-5.89-4.22-8.61-1.37-2.32-2.66-4.61-5.21-4.9-1.22-.14-2.4-.94-3.57-1.53-1.46-.74-2.68-1.78-3.58-3.65-.56-1.17-1.63-2.27-2.63-2.62-2.13-.75-4.36-1.35-6.54-1.35-2.6,0-5.38-1.01-7.79,1.51-.42.44-1.63.22-2.16-.28-2.52-2.4-5.38-2.55-8.29-2.69-.95-.05-2.04-.12-2.79-.75-2.08-1.76-4.37-1.89-6.68-2.06-.76-.06-1.54-.1-2.29-.3-2.55-.67-5.06-1.67-7.63-2.02-2.36-.32-4.51-.81-6.42-2.88-.53-.58-1.75-.58-2.48-.21-2.11,1.06-4.22,1.53-6.04,4.17-2.38,3.47-5.48,6.18-8.03,9.62-2.2,2.97-4.21,5.89-4.28,10.35-.02,1.11-.3,2.29-.69,3.28-1.14,2.88-1.17,5.97-.72,8.93.31,2.04-.06,3.43-.9,4.91-.46.8-1.09,1.62-1.2,2.53-.27,2.23-.41,4.51-.37,6.77.03,1.75-.29,2.75-1.59,3.55-2.14,1.33-3.52,5.4-3.28,8.45.1,1.22.06,2.54-.18,3.72-.19.94-.4,1.88-.62,2.81v10.76c.32.85.52,1.83.35,2.52-.66,2.76-.17,5.33.29,7.9.53,2.95.22,5.82-.64,8.31v44.32c.61.45,1.23.77,1.83.78,2.18.02,4.81-.12,6.44-1.67,2.9-2.74,5.82-.37,8.62-1.3,4.01,1.83,8.21,3.17,11.95,5.69,2.33,1.57,4.55,2.48,7.05,2.8,1.05.14,2.11.21,3.14.49.69.19,1.33.69,1.89,1.01,1.97-.24,3.72-.87,5.38-.59,4.53.77,8.85-.53,13.22-1.61,2.29-.57,4.56-1.19,6.86-1.66,1.33-.27,2.75.04,4.01-.44,3.61-1.37,7.09-3.54,10.75-4.4,3.4-.8,6.4-5.27,10.27-2.23.13.11.38-.02.57-.06,5.06-.98,10.13-1.93,15.19-2.98-.01-1.95-.04-3.9-.08-5.85Z" fill="#e1dbd1" fill-rule="evenodd"/>
      <path d="M480.56,45.4c-2.39-.16-3.43.97-5,2.91l-27.74,33.68-3.13,46.27c-.16,2.4,2.07,4.95,4.46,5.11l-.2,2.99-29.89-2.02.2-2.99c2.4.16,4.95-2.07,5.11-4.46l2.81-41.61-22.52-41.76c-1.06-2.12-1.81-3.37-4.21-3.54l.2-2.98,33.01,2.23-.2,2.98c-2.4-.16-4.7,1.97-3.9,4.3l16.11,30.05,22.51-27.31c1.12-2.33-.89-4.75-3.28-4.91l.2-2.99,15.66,1.06-.2,2.98Z" fill="#cd4c45"/>
    </g>
    <g>
      <path d="M281.06,157.36c1.37,3.48.79,6.34.21,9.52-.13.7-.43,1.44-.32,2.1.78,5.03-.77,9.76-2.02,14.37-1.43,5.25-.39,10.29.24,15.27.74,5.81.92,11.32-1.29,16.76-.24.6-.44,1.52-.19,2.01,1.35,2.62.6,5.35.67,8.05.04,1.64.54,3.29.97,4.9.92,3.43,2.13,6.77,2.84,10.24.95,4.62,1.54,9.33,2.4,13.98,37.65,3.2,75.33,6,113,8.93,0-2.18,0-4.36-.02-6.54-.02-2.86.26-5.9-.5-8.56-2.09-7.31-.54-14.44.23-21.63.07-.7.24-1.45.56-2.06,1.93-3.65,2.3-7.53,1.93-11.65-.11-1.16.41-2.45.86-3.58,1.14-2.86,1.12-6.33,3.83-8.4.27-.21.13-1.09.14-1.66.02-2.87-.13-5.75.06-8.6.18-2.67,0-5.08-1.37-7.44-.63-1.1-1.24-3.17-.73-3.93,2.06-3.09.58-5.76-.31-8.54-1.14-3.59-1.52-7.34-.8-10.97,1.23-6.25.56-11.86-3.71-17.25,2.15-2.61,1.03-4.86-.42-7.09-.38-.59-.77-1.18-1.08-1.82-2.3-4.71-5.93-7.22-10.83-7.67-6.27-.57-12.45-.33-18.4,2.25-.47.2-1.05.25-1.56.19-4.24-.52-8.52-.85-12.7-1.72-2.29-.48-3.81-.15-5.22,1.85-.68.96-1.81,2.05-2.81,2.16-3.81.4-7.67.76-11.48.5-5.01-.33-9.98-.81-14.93.49-.5.13-1.11.14-1.58-.05-4.12-1.63-8.1-.54-12.15.45-4.55,1.12-9.14,2.02-13.85,1.1-1.57-.3-3.2-.34-4.8-.39-2.89-.09-3.47.51-3.89,3.57-.47,3.4-1.22,6.79-1.41,10.21-.2,3.56-.75,7.56.46,10.63Z" fill="#fff" fill-rule="evenodd"/>
      <g>
        <path d="M326.13,200.57l-3.34,28.31c-.19,1.64,0,2.89.59,3.76.58.87,1.73,1.61,3.42,2.19l-.26,2.22-29.15-.13.26-2.22c1.77-.47,3.07-1.15,3.89-2.05.82-.89,1.32-2.16,1.52-3.8l8.56-72.6c.2-1.64,0-2.88-.6-3.74-.59-.84-1.72-1.56-3.42-2.15l.26-2.22,54.03.24c7.02.03,12.33.43,15.92,1.21,3.59.79,6.71,2.2,9.37,4.22,5.45,4.2,7.61,11.03,6.5,20.48-.85,7.2-3.34,12.8-7.48,16.83-4.13,4.03-10.37,6.92-18.73,8.67l12.84,23.49c2.33,4.33,4.26,7.28,5.77,8.85,1.51,1.57,3.33,2.55,5.44,2.99l-.26,2.21-34.68-.16.26-2.22c2.64-.72,4.06-1.91,4.25-3.54.14-1.16-.44-2.93-1.74-5.3l-13.48-25.46-19.75-.09ZM328.02,184.48l29.75.13c4.51.02,7.91-.5,10.19-1.54,3.21-1.42,5.07-4.24,5.57-8.46.44-3.76-.32-6.37-2.28-7.86-1.96-1.49-5.66-2.25-11.11-2.27l-29.74-.13-2.37,20.13Z" fill="#cbd0d5"/>
        <path d="M321.95,200.23l-3.33,28.31c-.2,1.64,0,2.89.58,3.76.58.87,1.73,1.61,3.43,2.19l-.26,2.22-29.15-.13.26-2.22c1.78-.47,3.07-1.15,3.89-2.05.81-.89,1.32-2.16,1.51-3.8l8.56-72.6c.19-1.64,0-2.88-.59-3.74-.59-.84-1.73-1.56-3.43-2.15l.27-2.22,54.03.24c7.02.03,12.33.43,15.92,1.21,3.59.79,6.71,2.2,9.37,4.22,5.45,4.2,7.61,11.03,6.5,20.48-.85,7.2-3.34,12.8-7.48,16.83-4.13,4.03-10.38,6.92-18.73,8.67l12.85,23.49c2.33,4.33,4.26,7.28,5.77,8.85,1.51,1.57,3.33,2.55,5.43,2.99l-.26,2.21-34.67-.16.26-2.22c2.64-.72,4.06-1.91,4.25-3.54.14-1.16-.44-2.93-1.74-5.3l-13.49-25.46-19.74-.09ZM323.84,184.14l29.74.13c4.52.02,7.92-.5,10.2-1.54,3.22-1.42,5.07-4.24,5.56-8.46.44-3.76-.31-6.37-2.27-7.86-1.96-1.49-5.66-2.25-11.11-2.27l-29.74-.13-2.37,20.13Z" fill="#271d15"/>
        <path d="M317.77,199.9l-3.34,28.31c-.2,1.64,0,2.89.59,3.76.58.87,1.73,1.61,3.42,2.18l-.26,2.22-29.15-.13.26-2.22c1.77-.47,3.07-1.15,3.89-2.05.81-.89,1.32-2.16,1.51-3.8l8.56-72.6c.19-1.64,0-2.88-.6-3.74-.58-.84-1.72-1.56-3.42-2.15l.26-2.22,54.03.24c7.02.03,12.33.43,15.92,1.21,3.59.79,6.72,2.2,9.37,4.22,5.45,4.2,7.61,11.03,6.5,20.48-.85,7.2-3.34,12.8-7.48,16.83-4.13,4.03-10.37,6.92-18.73,8.67l12.84,23.49c2.33,4.33,4.26,7.28,5.77,8.85,1.51,1.57,3.33,2.55,5.43,2.99l-.26,2.21-34.67-.16.26-2.22c2.65-.72,4.06-1.91,4.25-3.54.14-1.16-.44-2.93-1.73-5.3l-13.48-25.46-19.75-.09ZM319.67,183.81l29.74.13c4.52.02,7.92-.5,10.19-1.54,3.22-1.42,5.07-4.24,5.57-8.46.44-3.76-.32-6.37-2.28-7.86-1.96-1.49-5.66-2.25-11.11-2.27l-29.74-.13-2.37,20.13Z" fill="#cb7546"/>
      </g>
    </g>
  </g>
</svg>